<svg xmlns="http://www.w3.org/2000/svg" width="279" height="281" viewBox="0 0 279 281">
  <metadata><?xpacket begin="﻿" id="W5M0MpCehiHzreSzNTczkc9d"?>
<x:xmpmeta xmlns:x="adobe:ns:meta/" x:xmptk="Adobe XMP Core 5.6-c142 79.160924, 2017/07/13-01:06:39        ">
   <rdf:RDF xmlns:rdf="http://www.w3.org/1999/02/22-rdf-syntax-ns#">
      <rdf:Description rdf:about=""/>
   </rdf:RDF>
</x:xmpmeta>
                                                                                                    
                                                                                                    
                                                                                                    
                                                                                                    
                                                                                                    
                                                                                                    
                                                                                                    
                                                                                                    
                                                                                                    
                                                                                                    
                                                                                                    
                                                                                                    
                                                                                                    
                                                                                                    
                                                                                                    
                                                                                                    
                                                                                                    
                                                                                                    
                                                                                                    
                                                                                                    
                           
<?xpacket end="w"?></metadata>
<defs>
    <style>
      .cls-1 {
        fill: #001d35;
        fill-rule: evenodd;
        opacity: 0.24;
      }
    </style>
  </defs>
  <path id="Bar" class="cls-1" d="M83.988,1010.26H82v-1.99h1.989v1.99Zm3.465,0H85.466v-1.99h1.988v1.99Zm6.931,0H92.4v-1.99h1.988v1.99Zm3.466,0H95.862v-1.99H97.85v1.99Zm-6.931,3.56H88.93v-1.99h1.988v1.99Zm6.931,0H95.862v-1.99H97.85v1.99Zm-13.861,3.56H82v-1.99h1.989v1.99Zm6.93,0H88.93v-1.99h1.988v1.99Zm10.4,0H99.327v-1.99h1.989v1.99Zm-17.328,3.56H82v-1.98h1.989v1.98Zm3.465,0H85.466v-1.98h1.988v1.98Zm6.931,0H92.4v-1.98h1.988v1.98Zm6.932,0H99.327v-1.98h1.989v1.98Zm-13.863,3.57H85.466v-1.99h1.988v1.99Zm3.466,0H88.93v-1.99h1.988v1.99Zm10.4,0H99.327v-1.99h1.989v1.99Zm-17.328,3.56H82v-1.99h1.989v1.99Zm6.93,0H88.93v-1.99h1.988v1.99Zm-6.93,3.56H82v-1.99h1.989v1.99Zm3.465,0H85.466v-1.99h1.988v1.99Zm6.931,0H92.4v-1.99h1.988v1.99Zm3.466,0H95.862v-1.99H97.85v1.99Zm-13.861,3.57H82v-1.99h1.989v1.99Zm6.93,0H88.93v-1.99h1.988v1.99Zm10.4,0H99.327v-1.99h1.989v1.99Zm-13.863,3.56H85.466v-1.99h1.988v1.99Zm6.931,0H92.4v-1.99h1.988v1.99Zm-6.931,3.56H85.466v-1.99h1.988v1.99Zm13.863,0H99.327v-1.99h1.989v1.99Zm-17.328,3.57H82v-1.99h1.989v1.99Zm6.93,0H88.93v-1.99h1.988v1.99Zm3.465,0H92.4v-1.99h1.988v1.99Zm6.932,0H99.327v-1.99h1.989v1.99Zm-17.328,3.56H82v-1.99h1.989v1.99Zm3.465,0H85.466v-1.99h1.988v1.99Zm-3.465,3.56H82v-1.99h1.989v1.99Zm6.93,0H88.93v-1.99h1.988v1.99Zm6.931,0H95.862v-1.99H97.85v1.99Zm3.466,0H99.327v-1.99h1.989v1.99Zm-13.863,3.56H85.466v-1.99h1.988v1.99Zm10.4,0H95.862v-1.99H97.85v1.99Zm-10.4,3.57H85.466v-1.99h1.988v1.99Zm6.931,0H92.4v-1.99h1.988v1.99Zm0,3.56H92.4v-1.99h1.988v1.99Zm6.932,0H99.327v-1.99h1.989v1.99Zm-17.328,3.56H82v-1.99h1.989v1.99Zm3.465,0H85.466v-1.99h1.988v1.99Zm6.931,0H92.4v-1.99h1.988v1.99Zm6.932,3.56H99.327v-1.98h1.989v1.98Zm-17.328,3.57H82v-1.99h1.989v1.99Zm6.93,0H88.93v-1.99h1.988v1.99Zm10.4,0H99.327v-1.99h1.989v1.99Zm-17.328,3.56H82v-1.99h1.989v1.99Zm6.93,0H88.93v-1.99h1.988v1.99Zm6.931,0H95.862v-1.99H97.85v1.99Zm-10.4,3.56H85.466v-1.99h1.988v1.99Zm6.931,0H92.4v-1.99h1.988v1.99Zm6.932,0H99.327v-1.99h1.989v1.99Zm-10.4,3.56H88.93v-1.98h1.988v1.98Zm14.033-74.81h-1.988v-1.99h1.988v1.99Zm3.465,0h-1.988v-1.99h1.988v1.99Zm6.931,0H113.36v-1.99h1.988v1.99Zm3.465,0h-1.987v-1.99h1.987v1.99Zm3.466,0h-1.988v-1.99h1.988v1.99Zm-17.327,3.56h-1.988v-1.99h1.988v1.99Zm6.93,0H109.9v-1.99h1.987v1.99Zm6.931,0h-1.987v-1.99h1.987v1.99Zm-13.861,3.56h-1.988v-1.99h1.988v1.99Zm3.465,0h-1.988v-1.99h1.988v1.99Zm13.862,0h-1.988v-1.99h1.988v1.99Zm-6.931,3.56H113.36v-1.98h1.988v1.98Zm3.465,0h-1.987v-1.98h1.987v1.98Zm3.466,0h-1.988v-1.98h1.988v1.98Zm-13.862,3.57h-1.988v-1.99h1.988v1.99Zm3.465,0H109.9v-1.99h1.987v1.99Zm10.4,0h-1.988v-1.99h1.988v1.99Zm-17.327,3.56h-1.988v-1.99h1.988v1.99Zm6.93,0H109.9v-1.99h1.987v1.99Zm3.466,0H113.36v-1.99h1.988v1.99Zm3.465,0h-1.987v-1.99h1.987v1.99Zm-13.861,3.56h-1.988v-1.99h1.988v1.99Zm13.861,0h-1.987v-1.99h1.987v1.99Zm3.466,0h-1.988v-1.99h1.988v1.99Zm-17.327,3.57h-1.988v-1.99h1.988v1.99Zm6.93,0H109.9v-1.99h1.987v1.99Zm10.4,0h-1.988v-1.99h1.988v1.99Zm-13.862,3.56h-1.988v-1.99h1.988v1.99Zm6.931,0H113.36v-1.99h1.988v1.99Zm3.465,0h-1.987v-1.99h1.987v1.99Zm3.466,0h-1.988v-1.99h1.988v1.99Zm-13.862,3.56h-1.988v-1.99h1.988v1.99Zm3.465,0H109.9v-1.99h1.987v1.99Zm10.4,0h-1.988v-1.99h1.988v1.99Zm-17.327,7.13h-1.988v-1.99h1.988v1.99Zm6.93,0H109.9v-1.99h1.987v1.99Zm3.466,0H113.36v-1.99h1.988v1.99Zm-3.466,3.56H109.9v-1.99h1.987v1.99Zm10.4,0h-1.988v-1.99h1.988v1.99Zm-13.862,3.56h-1.988v-1.99h1.988v1.99Zm6.931,0H113.36v-1.99h1.988v1.99Zm3.465,0h-1.987v-1.99h1.987v1.99Zm-13.861,3.57h-1.988v-1.99h1.988v1.99Zm3.465,0h-1.988v-1.99h1.988v1.99Zm3.465,0H109.9v-1.99h1.987v1.99Zm10.4,0h-1.988v-1.99h1.988v1.99Zm-10.4,3.56H109.9v-1.99h1.987v1.99Zm3.466,0H113.36v-1.99h1.988v1.99Zm3.465,0h-1.987v-1.99h1.987v1.99Zm-10.4,3.56h-1.988v-1.99h1.988v1.99Zm6.931,0H113.36v-1.99h1.988v1.99Zm-3.466,3.56H109.9v-1.98h1.987v1.98Zm6.931,0h-1.987v-1.98h1.987v1.98Zm-13.861,3.57h-1.988v-1.99h1.988v1.99Zm6.93,0H109.9v-1.99h1.987v1.99Zm10.4,0h-1.988v-1.99h1.988v1.99Zm-17.327,3.56h-1.988v-1.99h1.988v1.99Zm6.93,0H109.9v-1.99h1.987v1.99Zm6.931,0h-1.987v-1.99h1.987v1.99Zm-10.4,3.56h-1.988v-1.99h1.988v1.99Zm6.931,0H113.36v-1.99h1.988v1.99Zm6.931,0h-1.988v-1.99h1.988v1.99Zm-17.327,3.56h-1.988v-1.98h1.988v1.98Zm6.93,0H109.9v-1.98h1.987v1.98Zm10.4,0h-1.988v-1.98h1.988v1.98Zm-20.963,3.45H99.327v-1.99h1.989v1.99Zm-17.328,3.29H82v-1.99h1.989v1.99Zm13.861,0H95.862v-1.99H97.85v1.99Zm24.429,0h-1.988v-1.99h1.988v1.99Zm-20.963,3.17H99.327v-1.99h1.989v1.99Zm-6.932,0H92.4v-1.99h1.988v1.99Zm24.429,0h-1.987v-1.99h1.987v1.99Zm-34.825,3.16H82v-1.99h1.989v1.99Zm24.429,0h-1.988v-1.99h1.988v1.99Zm6.931,0H113.36v-1.99h1.988v1.99Zm6.931,0h-1.988v-1.99h1.988v1.99Zm-27.895,3.16H92.4v-1.99h1.988v1.99Zm-6.931,0H85.466v-1.99h1.988v1.99Zm24.429,0H109.9v-1.99h1.987v1.99Zm-3.465,3.16h-1.988v-1.99h1.988v1.99Zm13.862,0h-1.988v-1.99h1.988v1.99Zm-27.895,3.32H92.4v-1.98h1.988v1.98Zm10.568,0h-1.988v-1.98h1.988v1.98Zm17.327,0h-1.988v-1.98h1.988v1.98Zm-13.862,3.12h-1.988v-1.98h1.988v1.98Zm-17.5,0H88.93v-1.98h1.988v1.98Zm0,9.36H88.93v-1.99h1.988v1.99Zm0,8.99H88.93v-1.98h1.988v1.98Zm-3.465,6H85.465v-1.99h1.988v1.99Zm34.825,0h-1.988v-1.99h1.988v1.99Zm-24.429-6H95.862v-1.98H97.85v1.98Zm0,10.1H95.862v-1.99H97.85v1.99Zm14.032,0h-1.988v-1.99h1.988v1.99Zm-3.464,8.65h-1.989v-1.99h1.989V1148Zm-7.1-37.1H99.327v-1.98h1.989v1.98Zm-17.328,3.12H82v-1.99h1.989v1.99Zm38.291,0h-1.988v-1.99h1.988v1.99Zm-13.862,3.12h-1.988v-1.99h1.988v1.99Zm0,18.11h-1.988v-1.99h1.988v1.99Zm-14.033-18.11H92.4v-1.99h1.988v1.99Zm-10.4,3.12H82v-1.99h1.989v1.99Zm0,4.5H82v-1.99h1.989v1.99Zm0,4.49H82v-1.98h1.989v1.98Zm17.328-8.99H99.327v-1.99h1.989v1.99Zm20.963,0h-1.988v-1.99h1.988v1.99Zm1.2-111.99v1.99l9.767,20.16v-1Zm7.552,18.85v1.22l-3.119-6v-1.54Zm2.212,4.48v0.99l-1.253-2.41v-1.12Zm-9.764-16.21v1.99l9.767,17.39v-1Zm0,3.57,1.076,1.9v1.88l-1.076-1.79v-1.99Zm6.7,11.84v1.31l-1.537-2.56v-1.46Zm0.952,1.69,0.617,1.09v1.14l-0.617-1.02v-1.21Zm2.107,3.73v0.99l-0.531-.89v-1.04Zm-9.762-13.7,2.225,3.67v1.76l-2.225-3.44v-1.99Zm9.762,16.1v1l-6.578-10.19v-1.66Zm-9.762-12.33,3.735,5.61v1.6l-3.735-5.23v-1.98Zm9.762,14.65v1l-2.337-3.28v-1.22Zm-9.762-11.3,1.076,1.51v1.88l-1.076-1.4v-1.99Zm5.62,7.86v1.42l-3.585-4.65v-1.78Zm1.562,2.19v1.26l-0.6-.78v-1.32Zm2.58,3.61v1l-1.628-2.11v-1.17Zm-9.762-10.09,3.079,3.91v1.67l-3.079-3.59v-1.99Zm4.733,7.51-0.7-.82v-1.58l0.656,0.84v1.49Zm2.922,2.2v1.21l-2.009-2.35v-1.41Zm2.107,2.67v1l-1.149-1.34v-1.11Zm0,2.36v0.99l-1.149-1.2v-1.11Zm-9.762-7.62,3.256,3.37v1.66l-3.256-3.04v-1.99Zm4.208,4.36,0.932,0.96v1.47l-0.932-.88v-1.55Zm5.554,5.74v1l-3.664-3.42v-1.3l-0.078-.16Zm-9.762-6.54,1.5,1.37v1.83l-1.5-1.21v-1.99Zm9.762,8.86v0.99l-0.925-.75v-1.08Zm-9.762-5.29,3.735,2.91v1.61l-3.735-2.53v-1.99Zm5.745,4.48v1.4l-1.058-.71v-1.44l-0.066-.13Zm4.017,3.13v0.99l-3.059-2.07v-1.3Zm-9.762-4.05,1.214,0.79v1.86l-1.214-.66v-1.99Zm3.256,2.11v1.65l-1.083-.59v-1.76Zm4.143,2.68v1.23l-3.191-1.74v-1.56Zm-7.4-1.23,1.982,1.03v1.79l-1.982-.83v-1.99Zm9.762,5.05v0.99l-3.808-1.58v-1.38Zm-9.762-1.48,3.735,1.44v1.6l-3.735-1.06v-1.98Zm4.687,1.81,2.712,1.04v1.23l-2.712-.77v-1.5Zm0,2.94v1.51l-2.225-.34v-1.74Zm5.075,1.29v0.99l-1.982-.3v-1.2l0.577,0.14Zm-9.762,1.08,3.492,0.49v1.63l-3.492-.13v-1.99Zm5.646,0.79v1.42l-1.195-.05v-1.54Zm4.116,0.58v0.99l-3.158-.11v-1.33Zm-9.762,2.2,1.5,0.02v1.84l-1.5.13v-1.99Zm8.016,0.1v1.18l-2.37.21v-1.42Zm1.746,0.03v0.99l-0.794.07v-1.08Zm-9.762,3.43,3.735-.44v1.6l-3.735.83v-1.99Zm5.646-.67v1.41l-0.959.21v-1.51Zm-0.959,3.05v1.51l-1.845.58v-1.7Zm3.191-.68v1.18l-2.232.71v-1.42l0.945-.19,0.013-.01Zm1.884-.4v0.99l-0.925.29v-1.08Zm-3.289,3.57v1.33l-4.11,1.85v-1.75Zm3.289-1.14v0.99l-2.331,1.05v-1.24Zm-9.762,6.83,3.735-1.61v1.61l-3.735,1.98v-1.98Zm4.687-2.02,3.027-1.3v1.21l-3.027,1.6v-1.51Zm0,3.11v1.51l-2.173,1.37v-1.73Zm5.075-2.7v0.99l-1.707,1.09v-1.18Zm-9.762,8.4,2.514-1.46v1.73l-2.514,1.72v-1.99Zm9.762-5.68v0.99l-3.158,2.16v-1.32Zm-7.4,7.36,5.213-3.43v1.21l-5.213,3.97v-1.75Zm7.4-4.88v1l-1.227.93v-1.12Zm-9.762,9.6,3.676-2.61v1.61l-3.676,2.99v-1.99Zm9.762-6.93v0.99l-2.994,2.43v-1.29Zm-3.158,4.95v1.31l-3.611,3.18v-1.68Zm3.158-2.46v0.99l-2.2,1.94v-1.22Zm-9.762,10.76,1.076-.9v1.88l-1.076,1.01v-1.99Zm2.035-1.7,3.473-2.91v1.43l-3.473,3.26v-1.78Zm7.727-6.47v1l-3.3,3.09v-1.33Zm-9.762,11.5,2.363-2.14v1.76l-2.363,2.37v-1.99Zm7.1-6.41v1.27l-1.858,1.87v-1.46Zm2.665-2.41v1l-1.707,1.71v-1.16Zm-9.762,11.94,1.693-1.65v1.82l-1.693,1.82v-1.99Zm6.289-6.12v1.34l-3.637,3.92v-1.72Zm3.473-3.38v0.99l-2.515,2.71v-1.26Zm0,2.67v0.99l-0.748.85v-1.08Zm-6.44,9.47v1.65l-1.439,1.71v-1.8Zm6.44-6.96v0.99l-5.482,6.49v-1.56Zm0,2.65v1l-3.322,4.06v-1.33Zm-3.171-32.87,0.013-.01v0.02ZM193.758,870.6h-3.6V867h3.6v3.6Zm6.454,0h-3.6V867h3.6v3.6Zm6.454,0h-3.6V867h3.6v3.6Zm6.453,0h-3.6V867h3.6v3.6Zm6.454,0h-3.6V867h3.6v3.6Zm-25.815,6.455h-3.6v-3.6h3.6v3.6Zm6.454,0h-3.6v-3.6h3.6v3.6Zm6.454,0h-3.6v-3.6h3.6v3.6Zm6.453,0h-3.6v-3.6h3.6v3.6Zm-19.361,6.455h-3.6v-3.6h3.6v3.6Zm12.908,0h-3.6v-3.6h3.6v3.6Zm6.453,0h-3.6v-3.6h3.6v3.6Zm6.454,0h-3.6v-3.6h3.6v3.6Zm-25.815,6.455h-3.6v-3.6h3.6v3.6Zm6.454,0h-3.6v-3.6h3.6v3.6Zm6.454,0h-3.6v-3.6h3.6v3.6Zm6.453,0h-3.6v-3.6h3.6v3.6Zm6.454,0h-3.6v-3.6h3.6v3.6Zm-25.815,6.455h-3.6v-3.6h3.6v3.6Zm6.454,0h-3.6v-3.6h3.6v3.6Zm6.454,0h-3.6v-3.6h3.6v3.6Zm6.453,0h-3.6v-3.6h3.6v3.6Zm6.454,0h-3.6v-3.6h3.6v3.6Zm-25.815,6.455h-3.6v-3.6h3.6v3.6Zm6.454,0h-3.6v-3.6h3.6v3.6Zm6.454,0h-3.6v-3.6h3.6v3.6Zm12.907,0h-3.6v-3.6h3.6v3.6Zm-25.815,6.455h-3.6v-3.6h3.6v3.6Zm12.908,0h-3.6v-3.6h3.6v3.6Zm6.453,0h-3.6v-3.6h3.6v3.6Zm6.454,0h-3.6v-3.6h3.6v3.6Zm-25.815,6.454h-3.6v-3.6h3.6v3.6Zm6.454,0h-3.6v-3.6h3.6v3.6Zm6.454,0h-3.6v-3.6h3.6v3.6Zm6.453,0h-3.6v-3.6h3.6v3.6Zm6.454,0h-3.6v-3.6h3.6v3.6Zm-25.815,6.455h-3.6v-3.6h3.6v3.6Zm6.454,0h-3.6v-3.6h3.6v3.6Zm6.454,0h-3.6v-3.6h3.6v3.6Zm6.453,0h-3.6v-3.6h3.6v3.6Zm6.454,0h-3.6v-3.6h3.6v3.6ZM193.758,928.7h-3.6v-3.6h3.6v3.6Zm6.454,0h-3.6v-3.6h3.6v3.6Zm12.907,0h-3.6v-3.6h3.6v3.6Zm6.454,0h-3.6v-3.6h3.6v3.6Zm-25.815,6.455h-3.6v-3.6h3.6v3.6Zm6.454,0h-3.6v-3.6h3.6v3.6Zm6.454,0h-3.6v-3.6h3.6v3.6Zm6.453,0h-3.6v-3.6h3.6v3.6Zm6.454,0h-3.6v-3.6h3.6v3.6Zm-25.815,6.455h-3.6v-3.6h3.6v3.6Zm6.454,0h-3.6v-3.6h3.6v3.6Zm6.454,0h-3.6v-3.6h3.6v3.6Zm6.453,0h-3.6v-3.6h3.6v3.6Zm-19.361,6.455h-3.6v-3.6h3.6v3.6Zm6.454,0h-3.6v-3.6h3.6v3.6Zm12.907,0h-3.6v-3.6h3.6v3.6Zm6.454,0h-3.6v-3.6h3.6v3.6Zm-25.815,6.455h-3.6v-3.6h3.6v3.6Zm12.908,0h-3.6v-3.6h3.6v3.6Zm6.453,0h-3.6v-3.6h3.6v3.6Zm6.454,0h-3.6v-3.6h3.6v3.6Zm6.378-83.914h-3.6V867h3.6v3.6Zm6.453,0h-3.6V867h3.6v3.6Zm6.453,0h-3.6V867h3.6v3.6Zm6.454,0h-3.6V867h3.6v3.6Zm6.453,0h-3.6V867h3.6v3.6m-25.813,6.455h-3.6v-3.6h3.6v3.6Zm6.453,0h-3.6v-3.6h3.6v3.6Zm6.453,0h-3.6v-3.6h3.6v3.6Zm6.454,0h-3.6v-3.6h3.6v3.6Zm6.453,0h-3.6v-3.6h3.6v3.6Zm-19.36,6.455h-3.6v-3.6h3.6v3.6Zm6.453,0h-3.6v-3.6h3.6v3.6Zm12.907,0h-3.6v-3.6h3.6v3.6Zm-25.813,6.455h-3.6v-3.6h3.6v3.6Zm6.453,0h-3.6v-3.6h3.6v3.6Zm6.453,0h-3.6v-3.6h3.6v3.6Zm6.454,0h-3.6v-3.6h3.6v3.6Zm6.453,0h-3.6v-3.6h3.6v3.6Zm-25.813,6.455h-3.6v-3.6h3.6v3.6Zm12.906,0h-3.6v-3.6h3.6v3.6Zm6.454,0h-3.6v-3.6h3.6v3.6Zm-19.36,6.455h-3.6v-3.6h3.6v3.6Zm6.453,0h-3.6v-3.6h3.6v3.6Zm6.453,0h-3.6v-3.6h3.6v3.6Zm6.454,0h-3.6v-3.6h3.6v3.6Zm6.453,0h-3.6v-3.6h3.6v3.6Zm-25.813,6.455h-3.6v-3.6h3.6v3.6Zm6.453,0h-3.6v-3.6h3.6v3.6Zm6.453,0h-3.6v-3.6h3.6v3.6Zm12.907,0h-3.6v-3.6h3.6v3.6Zm-25.813,6.454h-3.6v-3.6h3.6v3.6Zm6.453,0h-3.6v-3.6h3.6v3.6Zm6.453,0h-3.6v-3.6h3.6v3.6Zm6.454,0h-3.6v-3.6h3.6v3.6Zm6.453,0h-3.6v-3.6h3.6v3.6Zm-19.36,6.455h-3.6v-3.6h3.6v3.6Zm6.453,0h-3.6v-3.6h3.6v3.6Zm6.454,0h-3.6v-3.6h3.6v3.6Zm6.453,0h-3.6v-3.6h3.6v3.6ZM225.951,928.7h-3.6v-3.6h3.6v3.6Zm6.453,0h-3.6v-3.6h3.6v3.6Zm6.453,0h-3.6v-3.6h3.6v3.6Zm6.454,0h-3.6v-3.6h3.6v3.6Zm6.453,0h-3.6v-3.6h3.6v3.6Zm-25.813,6.455h-3.6v-3.6h3.6v3.6Zm6.453,0h-3.6v-3.6h3.6v3.6Zm12.907,0h-3.6v-3.6h3.6v3.6Zm6.453,0h-3.6v-3.6h3.6v3.6Zm-25.813,6.455h-3.6v-3.6h3.6v3.6Zm12.906,0h-3.6v-3.6h3.6v3.6Zm6.454,0h-3.6v-3.6h3.6v3.6Zm6.453,0h-3.6v-3.6h3.6v3.6Zm-25.813,6.455h-3.6v-3.6h3.6v3.6Zm6.453,0h-3.6v-3.6h3.6v3.6Zm12.907,0h-3.6v-3.6h3.6v3.6Zm6.453,0h-3.6v-3.6h3.6v3.6Zm-25.813,6.455h-3.6v-3.6h3.6v3.6Zm6.453,0h-3.6v-3.6h3.6v3.6Zm6.453,0h-3.6v-3.6h3.6v3.6Zm12.907,0h-3.6v-3.6h3.6v3.6Zm-58.006,6.155h-3.6v-3.6h3.6v3.6Zm6.454,0h-3.6v-3.6h3.6v3.6Zm6.454,0h-3.6v-3.6h3.6v3.6Zm12.907,0h-3.6v-3.6h3.6v3.6Zm6.378,0h-3.6v-3.6h3.6v3.6Zm12.906,0h-3.6v-3.6h3.6v3.6Zm6.454,0h-3.6v-3.6h3.6v3.6Zm6.453,0h-3.6v-3.6h3.6v3.6Zm-51.552,6.155h-3.6v-3.6h3.6v3.6Zm6.454,0h-3.6v-3.6h3.6v3.6Zm6.453,0h-3.6v-3.6h3.6v3.6Zm12.832,0h-3.6v-3.6h3.6v3.6Zm6.453,0h-3.6v-3.6h3.6v3.6Zm6.453,0h-3.6v-3.6h3.6v3.6Zm6.454,0h-3.6v-3.6h3.6v3.6Zm6.453,0h-3.6v-3.6h3.6v3.6Zm-58.006,6.155h-3.6v-3.6h3.6v3.6Zm6.454,0h-3.6v-3.6h3.6v3.6Zm12.907,0h-3.6v-3.6h3.6v3.6Zm6.454,0h-3.6v-3.6h3.6v3.6Zm6.378,0h-3.6v-3.6h3.6v3.6Zm6.453,0h-3.6v-3.6h3.6v3.6Zm12.907,0h-3.6v-3.6h3.6v3.6Zm6.453,0h-3.6v-3.6h3.6v3.6Zm-58.006,6.155h-3.6v-3.6h3.6v3.6Zm12.908,0h-3.6v-3.6h3.6v3.6Zm6.453,0h-3.6v-3.6h3.6v3.6Zm6.454,0h-3.6v-3.6h3.6v3.6Zm12.831,0h-3.6v-3.6h3.6v3.6Zm6.453,0h-3.6v-3.6h3.6v3.6Zm-38.645,6.155h-3.6v-3.6h3.6v3.6Zm6.454,0h-3.6v-3.6h3.6v3.6Zm12.907,0h-3.6v-3.6h3.6v3.6Zm6.378,0h-3.6v-3.6h3.6v3.6Zm12.906,0h-3.6v-3.6h3.6v3.6Zm6.454,0h-3.6v-3.6h3.6v3.6Zm6.453,0h-3.6v-3.6h3.6v3.6Zm-58.006,6.155h-3.6v-3.6h3.6v3.6Zm6.454,0h-3.6v-3.6h3.6v3.6Zm12.907,0h-3.6v-3.6h3.6v3.6Zm12.832,0h-3.6v-3.6h3.6v3.6Zm6.453,0h-3.6v-3.6h3.6v3.6Zm12.907,0h-3.6v-3.6h3.6v3.6ZM193.758,997.6h-3.6V994h3.6v3.6Zm12.908,0h-3.6V994h3.6v3.6Zm12.907,0h-3.6V994h3.6v3.6Zm6.378,0h-3.6V994h3.6v3.6Zm12.906,0h-3.6V994h3.6v3.6Zm12.907,0h-3.6V994h3.6v3.6Zm-51.552,6.158h-3.6v-3.61h3.6v3.61Zm12.907,0h-3.6v-3.61h3.6v3.61Zm6.454,0h-3.6v-3.61h3.6v3.61Zm12.831,0h-3.6v-3.61h3.6v3.61Zm12.907,0h-3.6v-3.61h3.6v3.61Zm6.453,0h-3.6v-3.61h3.6v3.61Zm-58.006,6.15h-3.6v-3.6h3.6v3.6Zm6.454,0h-3.6v-3.6h3.6v3.6Zm12.907,0h-3.6v-3.6h3.6v3.6Zm12.832,0h-3.6v-3.6h3.6v3.6Zm6.453,0h-3.6v-3.6h3.6v3.6Zm12.907,0h-3.6v-3.6h3.6v3.6Zm-38.645,6.16h-3.6v-3.61h3.6v3.61Zm12.907,0h-3.6v-3.61h3.6v3.61Zm6.378,0h-3.6v-3.61h3.6v3.61Zm12.906,0h-3.6v-3.61h3.6v3.61Zm12.907,0h-3.6v-3.61h3.6v3.61Zm-45.1,6.41h-3.6v-3.6h3.6v3.6Zm12.907,0h-3.6v-3.6h3.6v3.6Zm19.284,0h-3.6v-3.6h3.6v3.6Zm-25.738,6.07h-3.6v-3.6h3.6v3.6Zm-12.907,0h-3.6v-3.6h3.6v3.6Zm0,15.22h-3.6v-3.61h3.6v3.61Zm-6.454-7.91h-3.6v-3.6h3.6v3.6Zm58.006,0h-3.6v-3.6h3.6v3.6Zm-25.738-7.31h-3.6v-3.6h3.6v3.6Zm-6.453,7.31h-3.6v-3.6h3.6v3.6Zm12.907,0h-3.6v-3.6h3.6v3.6Zm-6.454,13.04h-3.6v-3.61h3.6v3.61Zm6.378,7.89h-3.6v-3.6h3.6v3.6Zm12.907-28.24h-3.6v-3.6h3.6v3.6ZM251.764,867h-3.6v3.6h3.6V867m2.106,0v3.171l15.578,32.16v-1.586L253.87,867m0,5.682v3.172l5.541,10.646v-2.6l-5.541-11.218m7.071,14.311v2.449l4.97,9.549v-1.937l-4.97-10.061m6.5,13.154v1.786l2.009,3.862v-1.583l-2.009-4.065M253.87,878.365v3.172l15.578,27.73v-1.586L253.87,878.365m0,5.686v3.165l1.726,2.876V887.1l-1.726-3.047m3.249,5.739v2.838l3.467,5.772v-2.482l-3.467-6.128m5,8.827v2.332l2.443,4.071v-2.088l-2.443-4.315m3.972,7.02v1.931l0.979,1.629v-1.832l-0.979-1.728m2.508,4.427v1.681l0.854,1.419v-1.59l-0.854-1.51M253.87,889.731V892.9l3.558,5.5V895.6l-3.558-5.865m5.081,8.38v2.653L269.45,917v-1.583l-10.5-17.305m-5.081-2.364v3.165l5.955,8.328v-2.562l-5.955-8.931m7.484,11.224v2.41l2.837,3.967v-2.122l-2.837-4.255m4.36,6.541v1.963l3.736,5.228v-1.589l-3.736-5.6M253.87,901.093v3.172L255.6,906.5v-3l-1.726-2.416m3.249,4.544v2.844l5.719,7.415v-2.26l-5.719-8m7.242,10.127v2.1l0.965,1.254v-2l-0.965-1.353m2.489,3.481V921.1l2.6,3.369v-1.583l-2.6-3.638M253.87,906.78v3.172l4.911,5.727v-2.673l-4.911-6.226m6.433,8.157v2.521l1.163,1.353-0.112-.17V916.27l-1.051-1.333m2.574,3.264v2.259l3.211,3.743v-1.931l-3.211-4.071m-3.226.439V920.9l3.211,3.743v-1.931l-3.211-4.071m7.961,5.563v1.78l1.838,2.141v-1.589l-1.838-2.332M253.87,912.461v3.172l1.943,2.023v-2.969l-1.943-2.226m13.742,15.722v1.767l1.838,1.917v-1.582l-1.838-2.1m-7.026-3.1v2.49l1.484,1.385V926.62l-1.484-1.537m2.882,2.975,0.132,0.256v2.069l5.85,5.451v-1.589l-5.982-6.187m-9.6-4.229v3.165l2.4,1.931v-2.916l-2.4-2.18m14.1,12.773v1.734l1.484,1.2v-1.583l-1.484-1.347m-14.1-7.092v3.172l5.955,4.032v-2.568l-5.955-4.636m7.386,5.753,0.1,0.19v2.3l1.681,1.136v-2.24l-1.779-1.385m3.3,2.574v2.082l4.891,3.316v-1.589l-4.891-3.809M253.87,935.19v3.173l1.943,1.057v-2.975l-1.943-1.255m3.466,2.24v2.817l1.727,0.946v-2.646l-1.727-1.117m3.25,2.1v2.489l5.088,2.771v-1.97l-5.088-3.29M267.2,943.8v1.82l2.252,1.228v-1.59L267.2,943.8m-13.328-2.928v3.172l3.164,1.313v-2.85l-3.164-1.635m4.688,2.423v2.692l3.289,1.36v-2.358l-3.289-1.694m4.812,2.482v2.2l6.08,2.522v-1.583l-6.08-3.139m-9.5.781v3.173l5.955,1.681v-2.561l-5.955-2.293m7.484,2.877v2.41l4.32,1.222V951.1l-4.32-1.662m5.844,2.246V953.5l2.252,0.637v-1.589l-2.252-.867m-13.328.559v3.171l2.4,0.362V952.85l-2.4-.61m3.926,0.991V956l3.558,0.538v-2.4l-3.558-.906m5.081,1.287v2.259l1.879,0.283V955l-1.879-.48m3.408,0.867v1.9l3.165,0.479v-1.583l-3.165-.8m-5.318,3.527v2.449l1.91,0.073v-2.253l-1.91-.269m3.44,0.486v2.1l5.043,0.19V960.1l-5.043-.7m-10.537,4.209v3.166l2.4-.21V963.64l-2.4-.033m3.926,0.053v2.765l3.558-.316v-2.4l-3.558-.046m5.081,0.066v2.252l3.775-.335v-1.872l-3.775-.045m5.305,0.065v1.714l1.268-.111v-1.583l-1.268-.02m-5.305,4.44-1.523.177v2.41l1.523-.334v-2.253m6.573-.768-5.043.59v2.1l5.043-1.1v-1.582m-12.566,6.574-3.014.643v3.172l3.014-.946v-2.869m4.47-.953-1.149.25v2.522l1.149-.362v-2.41m5.082-1.077-2.029.427v0.026l-0.026-.019-1.5.322v2.252l3.559-1.123v-1.885m3.014-.644-1.484.316v1.734l1.484-.467v-1.583m-13.335,8.5-2.245.781v3.172l2.245-1.005v-2.948m8.089-2.8-6.559,2.279v2.785l6.559-2.942v-2.122m5.246-1.819-3.723,1.294v1.957l3.723-1.668v-1.583m-9.625,8.328-5.955,2.555v3.172l5.955-3.166v-2.561m6.348-2.726-4.819,2.069v2.41l4.819-2.561V980.84m3.277-1.405-1.747.749v1.76l1.747-.926v-1.583m-13.093,11.079-2.487,1.32v3.172l2.487-1.576v-2.916m5-2.653-1.365.722v2.548l1.365-.86v-2.41m3.842-2.043-2.319,1.235v2.253l2.319-1.465v-2.023m4.254-2.259-2.731,1.452v1.865l2.731-1.728v-1.589m-11.569,11.073-4.011,2.331v3.167l4.011-2.74v-2.758m5-2.91-3.466,2.017v2.607l3.466-2.371v-2.253m6.573-3.822-5.043,2.936v2.1l5.043-3.448V987.9m-13.335,12.75-2.245,1.48v3.17l2.245-1.7v-2.95m9.842-6.485-4.878,3.219v2.436l4.878-3.71v-1.945m3.493-2.3-1.97,1.3v1.78l1.97-1.5v-1.583m-9.711,11.144-5.869,4.16v3.17l5.869-4.76v-2.57m3.4-2.41-1.871,1.32v2.42l1.871-1.52v-2.22m6.31-4.484-4.78,3.389v2.075l4.78-3.881v-1.583m-12.331,13.564-3.249,2.53v3.17l3.249-2.86v-2.84m7.288-5.67-5.758,4.49v2.67l5.758-5.06v-2.1m5.043-3.92-1.694,1.32v1.75l1.694-1.49v-1.58M255.6,1015.8l-1.726,1.45v3.17l1.726-1.62v-3m7.065-5.9-5.542,4.63v2.84l5.542-5.19v-2.28m6.789-5.67-5.259,4.39v2.12l5.259-4.93v-1.58m-11.805,14.92-3.775,3.41v3.17l3.775-3.79v-2.79m3.053-2.75-1.523,1.37v2.63l1.523-1.53v-2.47m4.5-4.06-2.968,2.68v2.32l2.968-2.98v-2.02m4.254-3.84-1.34,1.21v1.73l1.34-1.35v-1.59m-5.542,9.27-5.8,5.64v2.74l5.8-6.23v-2.15m5.542-5.39-4.018,3.91v1.99l4.018-4.31v-1.59m-7.071,11.46-5.805,5.91v2.9l5.805-6.5v-2.31m4.34-4.42-2.811,2.87v2.15l2.811-3.15v-1.87m2.731-2.77-0.506.51v1.64l0.506-.57v-1.58m-10.275,15.1-2.291,2.48v2.86l2.291-2.71v-2.63m10.275-11.11-8.752,9.46v2.48l8.752-10.35v-1.59m0,4.23-5.305,5.95v2.13l5.305-6.49v-1.59m-5.043-52.436h0l-0.026.007,0.026,0.019v-0.026m55.744,22.509h-0.782v-1.989h0.782v1.989Zm1.363,0h-0.782v-1.989h0.782v1.989Zm1.364,0H322.1v-1.989h0.782v1.989Zm-2.727,3.563h-0.782v-1.989h0.782v1.989Zm2.727,0h-2.146v-1.989h2.146v1.989Zm9.613,3.564H319.369v-1.99h13.122v1.99Zm-12.34,3.56h-0.782v-1.99h0.782v1.99Zm1.363,0h-0.782v-1.99h0.782v1.99Zm5.455,0h-3.51v-1.99h3.51v1.99Zm-6.818,7.13h-0.782v-1.99h0.782v1.99Zm8.249,0h-6.3v-1.99h6.3v1.99Zm0,3.56h-2.213v-1.99H328.4v1.99Zm-8.249,3.56h-0.782v-1.99h0.782v1.99Zm5.455,0H322.1v-1.99h3.51v1.99Zm-4.092,7.13h-0.782v-1.99h0.782v1.99Zm14.937,0H323.459v-1.99h12.992v1.99Zm-16.3,10.69h-0.782v-1.99h0.782v1.99Zm5.455,0H322.1v-1.99h3.51v1.99Zm1.363,0h-0.782v-1.99h0.782v1.99Zm-5.455,3.56h-0.782v-1.99h0.782v1.99Zm0,3.56h-0.782v-1.99h0.782v1.99Zm-1.363,3.57h-0.782v-1.99h0.782v1.99Zm8.249,0h-6.3v-1.99h6.3v1.99Zm-6.886,3.56h-2.145v-1.99h2.145v1.99Zm1.364,3.56H322.1v-1.99h0.782v1.99Zm2.728,0h-0.783v-1.99h0.783v1.99Zm1.363,0h-0.782v-1.99h0.782v1.99Zm-6.818,7.13h-0.782v-1.99h0.782v1.99Zm6.818,0H322.1v-1.99h4.873v1.99Zm-5.455,3.56h-0.782v-1.99h0.782v1.99Zm6.886,0h-4.941v-1.99H328.4v1.99Zm-8.249,3.56h-0.782v-1.99h0.782v1.99Zm2.727,0H322.1v-1.99h0.782v1.99Zm9.613-74.817h-0.782v-1.989h0.782v1.989Zm1.364,0h-0.782v-1.989h0.782v1.989Zm1.363,0h-0.782v-1.989h0.782v1.989Zm-6.818,3.563h-0.782v-1.989H328.4v1.989Zm18.133,0H330.345v-1.989h16.188v1.989ZM328.4,1005.63h-0.782v-1.99H328.4v1.99Zm6.818,3.56h-0.782v-1.98h0.782v1.98Zm-5.454,7.13h-0.782v-1.99h0.782v1.99Zm9.48,3.56h-4.808v-1.99h4.808v1.99ZM328.4,1034.13h-3.577v-1.99H328.4v1.99Zm4.091,0h-0.782v-1.99h0.782v1.99Zm2.727,0h-0.782v-1.99h0.782v1.99Zm-2.727,7.13h-6.3v-1.99h6.3v1.99Zm2.727,0h-0.782v-1.99h0.782v1.99Zm8.766,7.13h-9.548v-1.99h9.548v1.99Zm-8.766,7.12h-0.782v-1.99h0.782v1.99Zm-5.454,3.56h-0.782v-1.99h0.782v1.99Zm1.363,0h-0.782v-1.99h0.782v1.99Zm8.018,0h-4.709v-1.99h4.709v1.99Zm-9.381,7.13h-0.782v-1.99h0.782v1.99Zm-6.886,7.01H322.1v-1.99h0.782v1.99Zm8.249,0h-0.782v-1.99h0.782v1.99Zm-10.976,3.28h-0.782v-1.99h0.782v1.99Zm5.455,0h-0.783v-1.99h0.783v1.99Zm9.612,0h-8.966v-1.99h8.966v1.99Zm-8.249,3.17h-0.782v-1.98h0.782v1.98Zm-2.727,0h-0.783v-1.98h0.783v1.98Zm-4.091,3.16h-0.782v-1.98h0.782v1.98Zm2.727,0H322.1v-1.98h0.783v1.98Zm1.363,3.16h-0.782V1084h0.782v1.98Zm6.886,0h-0.782V1084h0.782v1.98Zm-10.976,3.16h-0.782v-1.98h0.782v1.98Zm9.613,0h-0.782v-1.98h0.782v1.98Zm-5.522,3.33h-0.783v-1.99h0.783v1.99Zm4.158,0h-0.782v-1.99H328.4v1.99Zm-8.249,6.24h-0.782v-1.99h0.782v1.99Zm6.818,0h-0.782v-1.99h0.782v1.99Zm-2.727,3.12h-0.783v-1.99h0.783v1.99Zm-4.091,3.12h-0.782v-1.99h0.782v1.99Zm6.818,0h-0.782v-1.99h0.782v1.99Zm8.249,0h-0.782v-1.99h0.782v1.99Zm0,7.22h-0.782v-1.99h0.782v1.99Zm-15.067,3.61h-0.782v-1.98h0.782v1.98Zm6.818,3.62h-0.782v-1.99h0.782v1.99Zm0,3.44h-0.782v-1.98h0.782v1.98Zm8.249-3.44h-0.782v-1.99h0.782v1.99Zm-0.131-124.457h-0.782v-1.989h0.782v1.989Zm1.364,0h-0.782v-1.989h0.782v1.989Zm1.364,0h-0.782v-1.989h0.782v1.989Zm2.728,0H339.76v-1.989h0.783v1.989Zm1.363,0h-0.783v-1.989h0.783v1.989Zm0,7.127h-0.783v-1.99h0.783v1.99Zm1.431,7.12h-7.668v-1.98h7.668v1.98Zm-4.224,10.69h-4.808v-1.99h4.808v1.99Zm-2.662,3.57H322.1v-1.99h14.355v1.99Zm6.886,0H338.4v-1.99h4.941v1.99Zm-1.431,7.12H327.9v-1.99h14.009v1.99Zm-6.819,3.56h-0.782v-1.99h0.782v1.99Zm1.364,0h-0.782v-1.99h0.782v1.99Zm6.886,7.13h-7.668v-1.99h7.668v1.99Zm-1.431,3.56h-0.783v-1.99h0.783v1.99Zm1.947,3.57h-9.548v-1.99h9.548v1.99Zm-4.839,10.68h-4.709v-1.99h4.709v1.99Zm2.892,0h-0.783v-1.99h0.783v1.99Zm-5.455,7.13h-0.782v-1.99h0.782v1.99Zm5.455,0h-4.873v-1.99h4.873v1.99Zm1.431-71.257h-0.782v-1.989h0.782v1.989Zm1.364,0h-0.783v-1.989H344.7v1.989Zm2.727,0h-0.782v-1.989h0.782v1.989Zm1.364,0h-0.783v-1.989h0.783v1.989Zm1.363,0h-0.782v-1.989h0.782v1.989Zm0,7.127h-0.782v-1.99h0.782v1.99Zm-6.818,3.56H328.982v-1.99h14.355v1.99Zm5.455,0H344.31v-1.99h4.482v1.99Zm1.363,0h-0.782v-1.99h0.782v1.99Zm0,3.56h-0.782v-1.98h0.782v1.98Zm-6.818,3.57H328.982v-1.99h14.355v1.99Zm2.728,0h-0.783v-1.99h0.783v1.99Zm2.727,0h-2.259v-1.99h2.259v1.99Zm-5.455,7.12h-0.782v-1.99h0.782v1.99Zm2.728,0h-0.783v-1.99h0.783v1.99Zm4.09,0h-0.782v-1.99h0.782v1.99Zm-5.454,3.57h-0.783v-1.99H344.7v1.99Zm4.091,0h-0.783v-1.99h0.783v1.99Zm1.363,0h-0.782v-1.99h0.782v1.99Zm-2.727,3.56h-0.782v-1.99h0.782v1.99Zm2.727,0h-0.782v-1.99h0.782v1.99Zm-1.363,3.56h-2.146v-1.99h2.146v1.99Zm1.363,0h-0.782v-1.99h0.782v1.99Zm-6.818,3.56H339.76v-1.99h3.577v1.99Zm4.091,0h-0.782v-1.99h0.782v1.99Zm2.727,0h-0.782v-1.99h0.782v1.99Zm0,3.57h-2.088v-1.99h2.088v1.99Zm-5.454,3.56h-0.783v-1.99H344.7v1.99Zm2.727,0h-0.782v-1.99h0.782v1.99Zm1.364,0h-0.783v-1.99h0.783v1.99Zm1.363,0h-0.782v-1.99h0.782v1.99Zm-2.727,3.56h-3.51v-1.99h3.51v1.99Zm2.727,0h-0.782v-1.99h0.782v1.99Zm0,3.57h-0.782v-1.99h0.782v1.99Zm-6.818,3.56h-0.782v-1.99h0.782v1.99Zm4.091,0h-0.782v-1.99h0.782v1.99Zm2.727,0h-2.088v-1.99h2.088v1.99Zm0,3.56h-0.782v-1.99h0.782v1.99Zm-4.09,3.56h-0.783v-1.99h0.783v1.99Zm4.09,0h-0.782v-1.99h0.782v1.99Zm-1.363,3.57h-0.783v-1.99h0.783v1.99Zm-4.091,3.56h-0.783v-1.99H344.7v1.99Zm2.727,0h-0.782v-1.99h0.782v1.99Zm2.727,0h-0.782v-1.99h0.782v1.99Zm-6.818,3.56h-0.782v-1.99h0.782v1.99Zm6.818,0h-0.782v-1.99h0.782v1.99Zm-6.818,3.45h-0.782v-1.99h0.782v1.99Zm2.728,0h-0.783v-1.99h0.783v1.99Zm-10.978,3.28h-8.966v-1.99h8.966v1.99Zm1.364,0h-0.782v-1.99h0.782v1.99Zm4.092,0H339.76v-1.99h0.783v1.99Zm2.794,0h-0.782v-1.99h0.782v1.99Zm6.818,0h-0.782v-1.99h0.782v1.99Zm-10.976,3.17H338.4v-1.98h0.783v1.98Zm9.612,0h-0.782v-1.98h0.782v1.98Zm1.364,0h-0.782v-1.98h0.782v1.98Zm-5.454,3.16h-0.783v-1.98H344.7v1.98Zm2.727,0h-0.782v-1.98h0.782v1.98Zm2.727,0h-0.782v-1.98h0.782v1.98Zm-10.977,3.16H338.4V1084h0.782v1.98Zm-2.727,0h-0.783V1084h0.783v1.98Zm9.614,0h-0.783V1084h0.783v1.98Zm1.363,0h-0.782V1084h0.782v1.98Zm-2.727,3.16h-0.783v-1.98H344.7v1.98Zm-2.8,0h-0.783v-1.98h0.783v1.98Zm8.249,0h-0.782v-1.98h0.782v1.98Zm-10.976,3.33H338.4v-1.99h0.783v1.99Zm10.976,0h-0.782v-1.99h0.782v1.99Zm-5.454,3.12h-0.783v-1.99H344.7v1.99Zm-6.886,0h-0.783v-1.99h0.783v1.99Zm4.091,0h-0.783v-1.99h0.783v1.99Zm0,3.12h-0.783v-1.99h0.783v1.99Zm8.249,0h-0.782v-1.99h0.782v1.99Zm-5.454,3.12h-0.783v-1.99H344.7v1.99Zm-5.522,0H338.4v-1.99h0.783v1.99Zm-4.092,3.12h-0.782v-1.99h0.782v1.99Zm6.819,0h-0.783v-1.99h0.783v1.99Zm8.249,0h-0.782v-1.99h0.782v1.99Zm0,3.61h-0.782v-1.99h0.782v1.99Zm-8.249,3.61h-0.783v-1.99h0.783v1.99Zm8.249,0h-0.782v-1.99h0.782v1.99Zm-6.818,3.61h-0.782v-1.98h0.782v1.98Zm-1.431,7.06h-0.783v-1.98h0.783v1.98Zm8.249-3.44h-0.782v-1.99h0.782v1.99Zm1.079-126.378v1.989L361,1015.17v-0.99Zm0,3.56,3.474,7.038v1.63l-3.474-6.678v-1.99Zm7.551,15.3v1.21l-3.125-6.01v-1.53Zm2.213,4.48v0.99l-1.261-2.43v-1.12Zm-9.766-16.21v1.99L361,1019.52v-0.99Zm0,3.56,1.078,1.9v1.88l-1.078-1.79v-1.99Zm4.209,7.44v1.56l-2.173-3.62v-1.78Zm3.447,6.09,0.618,1.1v1.14l-0.618-1.03v-1.21Zm2.108,3.73v0.99l-0.532-.88v-1.05Zm-7.538-10.02v1.76l-2.226-3.45v-1.99Zm1.5,5.69v1.61l-3.73-5.22v-1.99ZM361,1025.7v0.99l-2.337-3.27v-1.23Zm-9.764-11.3,1.078,1.5v1.89l-1.078-1.4v-1.99Zm5.621,7.86v1.42l-3.585-4.65v-1.78Zm0.959,1.35,0.6,0.83v1.26l-0.6-.78v-1.31Zm3.184,4.45v0.99l-1.629-2.11v-1.16Zm-9.764-10.09,3.073,3.9v1.66l-3.073-3.58v-1.98Zm4.735,7.5-0.7-.82v-1.57l0.657,0.84v1.48Zm2.921,2.21v1.2l-2.009-2.34v-1.41Zm-7.656-6.16,1.215,1.4v1.86l-1.215-1.27v-1.99Zm4.209,7.92,0.932,0.96v1.47l-0.932-.88v-1.55Zm5.555,5.74v1l-3.664-3.42v-1.29l-0.079-.15Zm-9.764-6.53,1.5,1.37v1.83l-1.5-1.21v-1.99ZM361,1037.5v0.99l-0.933-.74v-1.09Zm-9.764-5.29,3.73,2.91v1.61l-3.73-2.53v-1.99Zm4.623,3.6,1.122,0.88v1.4l-1.056-.71v-1.44Zm5.141,4.01v1l-3.066-2.08v-1.31Zm-6.513-1.94v1.66l-1.077-.59v-1.77Zm6.513,4.21v0.99l-1.412-.76-0.952-.52-3.191-1.74v-1.57l3.191,2.07,0.952,0.61Zm-9.764-2.75,1.984,1.03v1.78l-1.984-.83v-1.98Zm5,2.58v1.48l-2.061-.86v-1.68Zm4.767,2.46v1l-3.808-1.59v-1.37Zm-5.075.33,2.711,1.04v1.24l-2.711-.77v-1.51Zm-2.226,2.38,2.226,0.57v1.5l-2.226-.33v-1.74Zm3.184,0.8,1.175,0.31v1.28l-1.175-.18v-1.41Zm4.117,1.05v0.99l-1.983-.3v-1.19Zm-9.764,1.09,2.463,0.34v1.74l-2.463-.09v-1.99Zm9.764,1.36v0.99l-3.158-.11v-1.32Zm-9.764,2.2,1.5,0.02v1.83l-1.5.14v-1.99Zm6.606,0.09,1.405,0.01v1.18l-1.405.12v-1.31Zm-0.959,2.81v1.41l-0.958.21-0.959.21v-1.61ZM361,1056v1l-3.158.69v-1.26l-0.125-.04,0.125-.01Zm-9.764,4.53,1.885-.4v1.8l-1.885.59v-1.99Zm6.606-1.4,1.273-.28v1.19l-1.273.4v-1.3l-0.02-.01h0.02Zm3.158-.68v0.99l-0.933.3v-1.09Zm-9.764,5.82,1.406-.48v1.84l-1.406.63v-1.99Zm6.474-2.24v1.32l-4.11,1.85v-1.75Zm3.29-1.15v1l-2.331,1.04v-1.23Zm-9.764,6.83,2.713-1.17v1.72l-2.713,1.44v-1.99Zm4.642-1.99,3.073-1.32v1.2l-3.073,1.63v-1.51Zm5.122-2.2v0.99l-1.1.58v-1.1Zm-7.249,6.43,2.174-1.15v1.51l-2.174,1.38v-1.74Zm3.874-2.05,0.709-.38v1.26l-0.709.45v-1.33Zm3.375-1.8v1l-1.707,1.08v-1.17Zm0,2.72v1l-3.158,2.15v-1.31Zm-2.187,3.93v1.22l-5.213,3.96v-1.75Zm2.187-1.44v0.99l-1.235.94v-1.11Zm-9.764,9.6,3.678-2.62v1.61l-3.678,2.99v-1.98Zm4.636-3.29,1.175-.84v1.39l-1.175.96v-1.51Zm5.128-3.65v0.99l-1.235,1.01v-1.12Zm-3.158,4.95v1.32l-3.611,3.18v-1.68Zm3.158-2.45v0.99l-2.2,1.94v-1.22Zm-9.764,10.75,1.078-.9v1.88l-1.078,1.01v-1.99Zm5.509-4.61v1.44l-3.473,3.25v-1.78Zm4.255-3.55v0.99l-3.3,3.1v-1.34Zm-9.764,11.49,2.364-2.14v1.76l-2.364,2.37v-1.99Zm7.1-6.41v1.27l-1.864,1.87v-1.45Zm2.666-2.4v0.99l-1.707,1.72v-1.17Zm-7.111,9.35,3.637-3.54v1.35l-3.637,3.91v-1.72Zm7.111-6.92v1l-2.515,2.7v-1.26Zm-9.764,12.62,5.332-5.43v1.45l-5.332,5.97v-1.99Zm9.764-9.95v1l-0.755.85v-1.08Zm-7.879,11.03,1.438-1.56v1.66l-1.438,1.7v-1.8Zm7.879-8.52v1l-5.483,6.48v-1.55Zm0,2.66V1093l-3.323,4.06v-1.33Zm-3.283-35.62,0.125-.01v0.05Zm-1.792.21v1.51l-0.959.21v-1.61Zm1.917-.22v0.05l-0.125-.04Zm0,2.75v0.01l-0.02-.01h0.02Zm-4.721,48.43,1.438-1.7v1.64l-1.438,1.85v-1.79Zm7.879-9.32v0.99l-5.483,7.05v-1.55Zm0,3.01v0.99l-5.483,7.48v-1.55Zm0-5.96v0.99l-3.323,4.06v-1.33Zm-3.158-36.16v0.01l-0.02-.01h0.02Zm1.746-17.96v1.15l-0.952-.52v-1.24Zm-86.1-91.789H272.7v-1.989h0.782v1.989Zm1.364,0h-0.782v-1.989h0.782v1.989Zm1.364,0h-0.783v-1.989h0.783v1.989Zm2.727,0h-0.783v-1.989h0.783v1.989Zm1.363,0h-0.782v-1.989H280.3v1.989Zm-6.818,3.562H272.7v-1.988h0.782v1.988Zm2.728,0h-2.146v-1.988h2.146v1.988Zm-2.728,3.563H272.7v-1.988h0.782v1.988Zm5.455,0h-3.51v-1.988h3.51v1.988Zm1.363,0h-0.782v-1.988H280.3v1.988Zm-6.818,3.563H272.7V958.08h0.782v1.989Zm1.364,0h-0.782V958.08h0.782v1.989Zm5.454,0H276.8V958.08H280.3v1.989Zm-5.454,3.562h-0.782v-1.988h0.782v1.988Zm1.364,0h-0.783v-1.988h0.783v1.988Zm4.09,0h-0.782v-1.988H280.3v1.988Zm-6.818,3.564H272.7v-1.989h0.782V967.2Zm2.728,0h-0.783v-1.989h0.783V967.2Zm-1.364,3.562h-0.782v-1.988h0.782v1.988Zm2.727,0H276.8v-1.988h0.782v1.988Zm4.159,0h-2.214v-1.988h2.214v1.988Zm-8.25,3.563H272.7v-1.988h0.782v1.988Zm5.455,0h-3.51v-1.988h3.51v1.988Zm-4.091,3.563h-0.782v-1.989h0.782v1.989Zm4.091,0h-0.783v-1.989h0.783v1.989Zm-4.091,3.563h-0.782v-1.989h0.782v1.989Zm2.727,0H276.8v-1.989h0.782v1.989Zm-4.091,3.563H272.7V983.02h0.782v1.989Zm2.728,0h-0.783V983.02h0.783v1.989Zm4.09,0h-0.782V983.02H280.3v1.989Zm-6.818,3.562H272.7v-1.988h0.782v1.988Zm1.364,0h-0.782v-1.988h0.782v1.988Zm-1.364,3.563H272.7v-1.988h0.782v1.988Zm5.455,0h-3.51v-1.988h3.51v1.988Zm1.363,0h-0.782v-1.988H280.3v1.988ZM274.85,995.7h-0.782v-1.989h0.782V995.7Zm0,3.563h-0.782v-1.989h0.782v1.989Zm2.727,0H276.8v-1.989h0.782v1.989Zm2.727,0h-0.782v-1.989H280.3v1.989Zm-6.818,3.56H272.7v-1.99h0.782v1.99Zm2.728,0h-0.783v-1.99h0.783v1.99Zm4.09,0h-2.146v-1.99H280.3v1.99Zm-5.454,3.57H272.7v-1.99h2.146v1.99Zm2.727,0H276.8v-1.99h0.782v1.99Zm-1.363,3.56h-0.783v-1.99h0.783v1.99Zm2.727,0h-0.783v-1.99h0.783v1.99Zm1.363,0h-0.782v-1.99H280.3v1.99Zm-6.818,3.56H272.7v-1.99h0.782v1.99Zm1.364,0h-0.782v-1.99h0.782v1.99Zm1.364,0h-0.783v-1.99h0.783v1.99Zm4.09,0h-0.782v-1.99H280.3v1.99Zm-6.818,3.56H272.7v-1.99h0.782v1.99Zm2.728,0h-0.783v-1.99h0.783v1.99Zm-1.364,3.57h-0.782v-1.99h0.782v1.99Zm2.727,0H276.8v-1.99h0.782v1.99Zm-4.091,3.56H272.7v-1.99h0.782v1.99Zm2.728,0h-0.783v-1.99h0.783v1.99Zm5.522-74.819h-0.782v-1.989h0.782v1.989Zm1.363,0h-0.782v-1.989H283.1v1.989Zm2.727,0h-0.781v-1.989h0.781v1.989Zm1.365,0h-0.783v-1.989h0.783v1.989Zm1.363,0h-0.782v-1.989h0.782v1.989Zm-6.818,3.562h-0.782v-1.988h0.782v1.988Zm2.727,0h-0.782v-1.988h0.782v1.988Zm2.728,0h-0.783v-1.988h0.783v1.988Zm-1.365,3.563h-3.509v-1.988h3.509v1.988Zm2.728,0h-0.782v-1.988h0.782v1.988Zm-6.818,3.563h-0.782V958.08h0.782v1.989Zm5.455,0h-2.146V958.08h2.146v1.989Zm1.363,0h-0.782V958.08h0.782v1.989Zm-6.818,3.562h-0.782v-1.988h0.782v1.988Zm2.727,0h-2.146v-1.988h2.146v1.988Zm1.363,0h-0.781v-1.988h0.781v1.988Zm2.728,0h-0.782v-1.988h0.782v1.988Zm-6.818,3.564h-0.782v-1.989h0.782V967.2Zm2.727,0h-0.782v-1.989h0.782V967.2Zm-1.364,3.562h-0.782v-1.988H283.1v1.988Zm4.092,0h-0.783v-1.988h0.783v1.988Zm-5.455,3.563h-0.782v-1.988h0.782v1.988Zm2.727,0h-0.782v-1.988h0.782v1.988Zm1.363,0h-0.781v-1.988h0.781v1.988Zm2.728,0h-0.782v-1.988h0.782v1.988Zm-5.455,3.563h-0.782v-1.989H283.1v1.989Zm2.727,0h-0.781v-1.989h0.781v1.989Zm-1.363,3.563h-3.509v-1.989h3.509v1.989Zm1.363,0h-0.781v-1.989h0.781v1.989Zm1.365,3.563h-2.146V983.02h2.146v1.989Zm1.363,0h-0.782V983.02h0.782v1.989Zm-6.818,3.562h-3.578v-1.988h3.578v1.988Zm4.09,0h-0.781v-1.988h0.781v1.988Zm2.728,0h-0.782v-1.988h0.782v1.988Zm-5.455,3.563h-0.782v-1.988H283.1v1.988Zm1.364,0h-0.782v-1.988h0.782v1.988Zm4.091,0h-2.088v-1.988h2.088v1.988ZM283.1,995.7h-0.782v-1.989H283.1V995.7Zm2.727,0h-0.781v-1.989h0.781V995.7Zm2.728,0h-0.782v-1.989h0.782V995.7Zm-2.728,3.563h-3.509v-1.989h3.509v1.989Zm2.728,0h-0.782v-1.989h0.782v1.989Zm-6.818,3.56h-0.782v-1.99h0.782v1.99Zm6.818,0h-0.782v-1.99h0.782v1.99Zm-6.818,3.57h-0.782v-1.99h0.782v1.99Zm1.363,0h-0.782v-1.99H283.1v1.99Zm2.727,0h-0.781v-1.99h0.781v1.99Zm2.728,0h-2.088v-1.99h2.088v1.99Zm-4.091,3.56h-0.782v-1.99h0.782v1.99Zm2.728,0h-0.783v-1.99h0.783v1.99Zm1.363,0h-0.782v-1.99h0.782v1.99Zm-5.455,3.56h-0.782v-1.99H283.1v1.99Zm1.364,0h-0.782v-1.99h0.782v1.99Zm4.091,0h-0.782v-1.99h0.782v1.99Zm-6.818,3.56h-0.782v-1.99h0.782v1.99Zm2.727,0h-0.782v-1.99h0.782v1.99Zm2.728,0h-0.783v-1.99h0.783v1.99Zm-4.092,3.57h-0.782v-1.99H283.1v1.99Zm2.727,0h-0.781v-1.99h0.781v1.99Zm2.728,0h-0.782v-1.99h0.782v1.99Zm-6.818,3.56h-0.782v-1.99h0.782v1.99Zm2.727,0h-0.782v-1.99h0.782v1.99Zm4.091,0h-0.782v-1.99h0.782v1.99Zm-12.34,3.45h-0.783v-1.99h0.783v1.99Zm4.09,0h-0.782v-1.99H280.3v1.99Zm1.432,0h-0.782v-1.99h0.782v1.99Zm2.727,0h-0.782v-1.99h0.782v1.99Zm-10.977,3.28H272.7v-1.99h0.782v1.99Zm1.364,0h-0.782v-1.99h0.782v1.99Zm4.091,0h-0.783v-1.99h0.783v1.99Zm2.8,0h-0.782v-1.99h0.782v1.99Zm6.818,0h-0.782v-1.99h0.782v1.99Zm-8.25,3.17h-0.782v-1.99H280.3v1.99Zm-2.727,0H276.8v-1.99h0.782v1.99Zm9.613,0h-0.782v-1.99h0.782v1.99Zm1.364,0h-0.782v-1.99h0.782v1.99Zm-15.068,3.16H272.7v-1.99h0.782v1.99Zm9.613,0h-0.782v-1.99H283.1v1.99Zm-6.885,0h-0.783v-1.99h0.783v1.99Zm9.612,0h-0.781v-1.99h0.781v1.99Zm2.728,0h-0.782v-1.99h0.782v1.99Zm-15.068,3.16H272.7v-1.99h0.782v1.99Zm4.091,0H276.8v-1.99h0.782v1.99Zm-2.727,0h-0.783v-1.99h0.783v1.99Zm9.613,0h-0.782v-1.99h0.782v1.99Zm1.363,0h-0.781v-1.99h0.781v1.99Zm-12.34,3.16H272.7v-1.99h0.782v1.99Zm9.613,0h-0.782v-1.99H283.1v1.99Zm-5.522,0H276.8v-1.99h0.782v1.99Zm2.727,0h-0.782v-1.99H280.3v1.99Zm8.25,0h-0.782v-1.99h0.782v1.99Zm-15.068,3.33H272.7v-1.99h0.782v1.99Zm9.613,0h-0.782v-1.99H283.1v1.99Zm-5.522,0H276.8v-1.99h0.782v1.99Zm4.159,0h-0.782v-1.99h0.782v1.99Zm6.818,0h-0.782v-1.99h0.782v1.99Zm-5.455,3.12h-0.782v-1.99H283.1v1.99Zm-6.885,0h-0.783v-1.99h0.783v1.99Zm4.09,0h-0.782v-1.99H280.3v1.99Zm-6.818,3.12H272.7v-1.99h0.782v1.99Zm6.818,0h-0.782v-1.99H280.3v1.99Zm8.25,0h-0.782v-1.99h0.782v1.99Zm-10.977,3.12H276.8v-1.99h0.782v1.99Zm-4.091,3.12H272.7v-1.99h0.782v1.99Zm6.818,0h-0.782v-1.99H280.3v1.99Zm8.25,0h-0.782v-1.99h0.782v1.99ZM273.486,1063H272.7v-1.99h0.782V1063Zm15.068,0h-0.782v-1.99h0.782V1063Zm-8.25,3.61h-0.782v-1.99H280.3v1.99Zm8.25,0h-0.782v-1.99h0.782v1.99Zm-15.068,3.61H272.7v-1.99h0.782v1.99Zm8.25,0h-0.782v-1.99h0.782v1.99Zm-1.432,3.61h-0.782v-1.98H280.3v1.98Zm0,3.45h-0.782v-1.99H280.3v1.99Zm8.25-3.45h-0.782v-1.98h0.782v1.98Zm-0.131-124.449h-0.782v-1.989h0.782v1.989Zm1.364,0H289v-1.989h0.783v1.989Zm1.364,0h-0.782v-1.989h0.782v1.989Zm2.727,0H293.1v-1.989h0.783v1.989Zm1.364,0h-0.783v-1.989h0.783v1.989Zm-6.819,3.562h-0.782v-1.988h0.782v1.988Zm2.728,0H289v-1.988h2.147v1.988Zm-2.728,3.563h-0.782v-1.988h0.782v1.988Zm5.455,0h-3.509v-1.988h3.509v1.988Zm1.364,0h-0.783v-1.988h0.783v1.988Zm-6.819,3.563h-0.782V958.08h0.782v1.989Zm1.364,0H289V958.08h0.783v1.989Zm5.455,0h-3.51V958.08h3.51v1.989Zm-5.455,3.562H289v-1.988h0.783v1.988Zm1.364,0h-0.782v-1.988h0.782v1.988Zm4.091,0h-0.783v-1.988h0.783v1.988Zm-6.819,3.564h-0.782v-1.989h0.782V967.2Zm2.728,0h-0.782v-1.989h0.782V967.2Zm2.727,0H293.1v-1.989h0.783V967.2Zm-4.091,3.562H289v-1.988h0.783v1.988Zm2.727,0h-0.782v-1.988h0.782v1.988Zm4.159,0h-2.214v-1.988h2.214v1.988Zm-8.25,3.563h-0.782v-1.988h0.782v1.988Zm5.455,0h-3.509v-1.988h3.509v1.988Zm-4.091,3.563H289v-1.989h0.783v1.989Zm2.727,0h-0.782v-1.989h0.782v1.989Zm1.364,0H293.1v-1.989h0.783v1.989Zm-4.091,3.563H289v-1.989h0.783v1.989Zm2.727,0h-0.782v-1.989h0.782v1.989Zm-4.091,3.563h-0.782V983.02h0.782v1.989Zm2.728,0h-0.782V983.02h0.782v1.989Zm4.091,0h-0.783V983.02h0.783v1.989Zm-6.819,3.562h-0.782v-1.988h0.782v1.988Zm1.364,0H289v-1.988h0.783v1.988Zm-1.364,3.563h-0.782v-1.988h0.782v1.988Zm5.455,0h-3.509v-1.988h3.509v1.988Zm1.364,0h-0.783v-1.988h0.783v1.988Zm-5.455,3.563H289v-1.989h0.783V995.7Zm0,3.563H289v-1.989h0.783v1.989Zm2.727,0h-0.782v-1.989h0.782v1.989Zm2.728,0h-0.783v-1.989h0.783v1.989Zm-6.819,3.56h-0.782v-1.99h0.782v1.99Zm2.728,0h-0.782v-1.99h0.782v1.99Zm4.091,0H293.1v-1.99h2.147v1.99Zm-5.455,3.57h-2.146v-1.99h2.146v1.99Zm2.727,0h-0.782v-1.99h0.782v1.99Zm-1.363,3.56h-0.782v-1.99h0.782v1.99Zm2.727,0H293.1v-1.99h0.783v1.99Zm1.364,0h-0.783v-1.99h0.783v1.99Zm-6.819,3.56h-0.782v-1.99h0.782v1.99Zm2.728,0h-0.782v-1.99h0.782v1.99Zm4.091,0h-0.783v-1.99h0.783v1.99Zm-6.819,3.56h-0.782v-1.99h0.782v1.99Zm2.728,0h-0.782v-1.99h0.782v1.99Zm2.727,0H293.1v-1.99h0.783v1.99Zm-4.091,3.57H289v-1.99h0.783v1.99Zm2.727,0h-0.782v-1.99h0.782v1.99Zm2.728,0h-0.783v-1.99h0.783v1.99Zm-6.819,3.56h-0.782v-1.99h0.782v1.99Zm2.728,0h-0.782v-1.99h0.782v1.99Zm5.522-74.819H295.89v-1.989h0.783v1.989Zm1.363,0h-0.782v-1.989h0.782v1.989Zm2.727,0h-0.781v-1.989h0.781v1.989Zm1.365,0h-0.783v-1.989h0.783v1.989Zm1.363,0h-0.783v-1.989h0.783v1.989Zm-6.818,3.562H295.89v-1.988h0.783v1.988Zm2.727,0h-0.782v-1.988H299.4v1.988Zm2.728,0h-0.783v-1.988h0.783v1.988Zm-1.365,3.563h-3.509v-1.988h3.509v1.988Zm2.728,0h-0.783v-1.988h0.783v1.988Zm-6.818,3.563H295.89V958.08h0.783v1.989Zm5.455,0h-2.146V958.08h2.146v1.989Zm1.363,0h-0.783V958.08h0.783v1.989Zm-6.818,3.562H295.89v-1.988h0.783v1.988Zm2.727,0h-2.146v-1.988H299.4v1.988Zm1.363,0h-0.781v-1.988h0.781v1.988Zm2.728,0h-0.783v-1.988h0.783v1.988Zm-6.818,3.564H295.89v-1.989h0.783V967.2Zm2.727,0h-0.782v-1.989H299.4V967.2Zm2.728,0h-2.26v-1.989h2.26V967.2Zm-4.092,3.562h-0.782v-1.988h0.782v1.988Zm4.092,0h-0.783v-1.988h0.783v1.988Zm1.363,0h-0.783v-1.988h0.783v1.988Zm-6.818,3.563H295.89v-1.988h0.783v1.988Zm2.727,0h-0.782v-1.988H299.4v1.988Zm4.091,0h-0.783v-1.988h0.783v1.988Zm-5.455,3.563h-0.782v-1.989h0.782v1.989Zm4.092,0h-0.783v-1.989h0.783v1.989Zm1.363,0h-0.783v-1.989h0.783v1.989Zm-2.728,3.563h-0.781v-1.989h0.781v1.989Zm2.728,0h-0.783v-1.989h0.783v1.989Zm-1.363,3.563h-2.146V983.02h2.146v1.989Zm1.363,0h-0.783V983.02h0.783v1.989Zm-6.818,3.562H293.1v-1.988h3.578v1.988Zm4.09,0h-0.781v-1.988h0.781v1.988Zm2.728,0h-0.783v-1.988h0.783v1.988Zm-5.455,3.563h-0.782v-1.988h0.782v1.988Zm1.364,0h-0.782v-1.988H299.4v1.988Zm4.091,0H301.4v-1.988h2.089v1.988Zm-5.455,3.563h-0.782v-1.989h0.782V995.7Zm2.727,0h-0.781v-1.989h0.781V995.7Zm1.365,0h-0.783v-1.989h0.783V995.7Zm1.363,0h-0.783v-1.989h0.783V995.7Zm-2.728,3.563h-3.509v-1.989h3.509v1.989Zm2.728,0h-0.783v-1.989h0.783v1.989Zm-6.818,3.56H295.89v-1.99h0.783v1.99Zm6.818,0h-0.783v-1.99h0.783v1.99Zm-6.818,3.57H295.89v-1.99h0.783v1.99Zm1.363,0h-0.782v-1.99h0.782v1.99Zm2.727,0h-0.781v-1.99h0.781v1.99Zm2.728,0H301.4v-1.99h2.089v1.99Zm-4.091,3.56h-0.782v-1.99H299.4v1.99Zm2.728,0h-0.783v-1.99h0.783v1.99Zm1.363,0h-0.783v-1.99h0.783v1.99Zm-6.818,3.56H295.89v-1.99h0.783v1.99Zm1.363,0h-0.782v-1.99h0.782v1.99Zm1.364,0h-0.782v-1.99H299.4v1.99Zm4.091,0h-0.783v-1.99h0.783v1.99Zm-6.818,3.56H295.89v-1.99h0.783v1.99Zm2.727,0h-0.782v-1.99H299.4v1.99Zm2.728,0h-0.783v-1.99h0.783v1.99Zm-4.092,3.57h-0.782v-1.99h0.782v1.99Zm2.727,0h-0.781v-1.99h0.781v1.99Zm2.728,0h-0.783v-1.99h0.783v1.99Zm-6.818,3.56H295.89v-1.99h0.783v1.99Zm2.727,0h-0.782v-1.99H299.4v1.99Zm4.091,0h-0.783v-1.99h0.783v1.99Zm-12.34,3.45h-0.782v-1.99h0.782v1.99Zm4.091,0h-0.783v-1.99h0.783v1.99Zm1.431,0H295.89v-1.99h0.783v1.99Zm2.727,0h-0.782v-1.99H299.4v1.99Zm-10.977,3.28h-0.782v-1.99h0.782v1.99Zm1.364,0H289v-1.99h0.783v1.99Zm4.091,0H293.1v-1.99h0.783v1.99Zm2.8,0H295.89v-1.99h0.783v1.99Zm6.818,0h-0.783v-1.99h0.783v1.99Zm-8.249,3.17h-0.783v-1.99h0.783v1.99Zm-2.728,0h-0.782v-1.99h0.782v1.99Zm9.613,0h-0.782v-1.99h0.782v1.99Zm1.364,0h-0.783v-1.99h0.783v1.99Zm-5.455,3.16h-0.782v-1.99h0.782v1.99Zm-6.885,0h-0.783v-1.99h0.783v1.99Zm9.612,0h-0.781v-1.99h0.781v1.99Zm2.728,0h-0.783v-1.99h0.783v1.99Zm-15.068,3.16h-0.782v-1.99h0.782v1.99Zm4.091,0h-0.782v-1.99h0.782v1.99Zm-2.727,0H289v-1.99h0.783v1.99Zm9.613,0h-0.782v-1.99H299.4v1.99Zm1.363,0h-0.781v-1.99h0.781v1.99Zm-12.34,3.16h-0.782v-1.99h0.782v1.99Zm9.613,0h-0.782v-1.99h0.782v1.99Zm-5.522,0h-0.782v-1.99h0.782v1.99Zm2.728,0h-0.783v-1.99h0.783v1.99Zm8.249,0h-0.783v-1.99h0.783v1.99Zm-15.068,3.33h-0.782v-1.99h0.782v1.99Zm9.613,0h-0.782v-1.99h0.782v1.99Zm-5.522,0h-0.782v-1.99h0.782v1.99Zm4.159,0H295.89v-1.99h0.783v1.99Zm6.818,0h-0.783v-1.99h0.783v1.99Zm-5.455,3.12h-0.782v-1.99h0.782v1.99Zm-6.885,0h-0.783v-1.99h0.783v1.99Zm4.091,0h-0.783v-1.99h0.783v1.99Zm-6.819,3.12h-0.782v-1.99h0.782v1.99Zm6.819,0h-0.783v-1.99h0.783v1.99Zm8.249,0h-0.783v-1.99h0.783v1.99Zm-5.455,3.12h-0.782v-1.99h0.782v1.99Zm-5.522,0h-0.782v-1.99h0.782v1.99Zm-4.091,3.12h-0.782v-1.99h0.782v1.99Zm6.819,0h-0.783v-1.99h0.783v1.99Zm8.249,0h-0.783v-1.99h0.783v1.99ZM288.423,1063h-0.782v-1.99h0.782V1063Zm15.068,0h-0.783v-1.99h0.783V1063Zm-8.249,3.61h-0.783v-1.99h0.783v1.99Zm8.249,0h-0.783v-1.99h0.783v1.99Zm-15.068,3.61h-0.782v-1.99h0.782v1.99Zm8.25,0H295.89v-1.99h0.783v1.99Zm-1.431,3.61h-0.783v-1.98h0.783v1.98Zm0,3.45h-0.783v-1.99h0.783v1.99Zm8.249-3.45h-0.783v-1.98h0.783v1.98Zm1.326-126.37v1.989l9.766,20.162v-0.994Zm0,3.562,3.473,7.034v1.635l-3.473-6.679v-1.99Zm4.431,8.971,3.119,6.318v1.221l-3.119-6v-1.544Zm5.332,10.8v1l-1.254-2.41v-1.13Zm-9.764-16.2v1.988l9.766,17.386v-1Zm0,3.562,1.083,1.918v1.878l-1.083-1.806v-1.99Zm4.208,7.441v1.563l-2.173-3.626v-1.779Zm2.5,4.406v1.314l-1.536-2.562v-1.464Zm0.952,1.688,0.617,1.09v1.149l-0.617-1.031v-1.208Zm2.108,3.724v1l-0.532-.887v-1.05Zm-9.763-13.693,2.225,3.671v1.76l-2.225-3.448v-1.983Zm9.763,16.1v0.992L308,968.623v-1.655Zm-9.763-12.333,3.736,5.608v1.6l-3.736-5.227v-1.983Zm6.467,9.706v1.327l-1.78-2.49v-1.51Zm3.3,4.946v0.991l-2.338-3.271v-1.228Zm-9.763-11.3,1.083,1.517v1.872l-1.083-1.4v-1.984Zm5.62,7.861v1.413l-3.585-4.65V971.69ZM312,978.887v1.255l-0.6-.782v-1.313Zm2.58,3.612v0.992l-1.629-2.115v-1.155Zm-9.763-10.1,3.079,3.908v1.674l-3.079-3.592V972.4Zm4.733,7.513-0.7-.821v-1.576l0.657,0.834v1.491Zm2.922,2.2v1.208l-2.009-2.344v-1.412Zm2.108,2.673v1l-1.149-1.34v-1.116Zm-9.763-8.82,1.215,1.392v1.859l-1.215-1.268v-1.983Zm7.655,8.761v1.2l-5.482-5.714v-1.642l-0.158-.3Zm2.108,2.41v0.992l-1.149-1.2v-1.109Zm-9.763-7.611,3.256,3.368v1.656l-3.256-3.035v-1.989Zm4.208,4.354,0.932,0.965v1.465l-0.932-.874v-1.556Zm5.555,5.746v0.992l-3.664-3.415v-1.3l-0.072-.138Zm-8.26-5.168v1.825l-1.5-1.208v-1.983Zm8.26,7.486v0.992l-0.926-.749V991.1Zm-9.763-5.293,3.736,2.909v1.609l-3.736-2.528v-1.99Zm4.622,3.606,1.122,0.873v1.406l-1.057-.717V990.38Zm5.141,4v0.992l-3.06-2.075v-1.3Zm-9.763-4.045L306.033,991v1.859l-1.215-.664v-1.983Zm3.256,2.108v1.649l-1.083-.592v-1.759ZM312.217,995v1.234l-3.191-1.74v-1.557Zm2.364,1.53v0.991l-1.405-.768v-1.13Zm-9.763-2.753L306.8,994.8v1.787l-1.983-.821v-1.991Zm2.941,1.518,2.055,1.064v1.477l-2.055-.847v-1.694Zm6.822,3.526v0.993l-3.808-1.577v-1.386Zm-9.763-1.477,3.736,1.438v1.6l-3.736-1.055v-1.983Zm7.4,2.848v1.23l-2.712-.77v-1.5Zm2.364,0.91v0.99l-1.405-.4v-1.13Zm-9.763-.2,1.5,0.38v1.84l-1.5-.23v-1.99Zm4.687,1.19v1.51l-2.225-.33v-1.74Zm0.959,0.24,1.175,0.3v1.29l-1.175-.18v-1.41Zm4.117,1.05v0.99l-1.983-.3v-1.2l0.578,0.15Zm-9.763,1.09,2.462,0.34v1.73l-2.462-.09v-1.98Zm4.451,0.62,1.195,0.17v1.41l-1.195-.05v-1.53Zm5.312,0.74v1l-3.158-.12v-1.32Zm-9.763,2.2,1.5,0.02v1.84l-1.5.13v-1.99Zm4.687,0.06v1.51l-2.225.2v-1.74Zm1.918,0.03,1.411,0.01v1.18l-1.411.12v-1.31Zm3.158,0.04v0.99l-0.8.07v-1.07Zm-9.763,3.43,3.736-.44v1.61l-3.736.82v-1.99Zm5.646-.66v1.4l-0.959.21v-1.5Zm4.117-.49v1l-3.158.69v-1.27l-0.105-.03,0.105-.01Zm-9.763,4.53,1.884-.4v1.8l-1.884.59v-1.99Zm4.687-1v1.51l-1.844.59v-1.71Zm1.918-.41,1.273-.27v1.19l-1.273.4v-1.3l-0.014-.01Zm3.158-.67v1l-0.926.28v-1.08Zm-9.763,5.82,1.411-.49v1.84l-1.411.64v-1.99Zm6.473-2.25v1.33l-4.11,1.85v-1.75Zm3.29-1.14v0.99l-2.331,1.05v-1.24Zm-9.763,6.83,2.711-1.17v1.71l-2.711,1.44v-1.98Zm4.642-2,3.072-1.32v1.21l-3.072,1.63v-1.52Zm5.121-2.2v1l-1.09.58v-1.11Zm-9.763,7.78,1.556-.83v1.83l-1.556.99v-1.99Zm4.687-2.49v1.51l-2.173,1.38v-1.74Zm1.7-.91,0.709-.37v1.26l-0.709.45v-1.34Zm3.375-1.79v1l-1.707,1.08v-1.18Zm-9.763,8.4,2.514-1.46v1.73l-2.514,1.72v-1.99Zm5.646-3.28v1.41l-2.173,1.49v-1.64Zm4.117-2.4v0.99l-3.158,2.17v-1.32Zm-9.763,8.92,1.411-.93v1.84l-1.411,1.08v-1.99Zm7.576-5v1.22l-5.213,3.97v-1.75Zm2.187-1.43v0.99l-1.228.94v-1.13Zm-3.952,5.46v1.4l-1.176.96v-1.52Zm3.952-2.8v0.99l-1.228,1v-1.12Zm-9.763,10.1,2.035-1.59v1.78l-2.035,1.79v-1.98Zm6.605-5.15v1.31l-3.611,3.19v-1.69Zm3.158-2.46v0.99l-2.2,1.94v-1.22Zm-9.763,10.76,1.076-.9v1.88l-1.076,1.01v-1.99Zm5.508-4.61v1.43l-3.473,3.26v-1.78Zm4.255-3.56v1l-3.3,3.09v-1.33Zm-9.763,11.5,2.363-2.14v1.76l-2.363,2.37v-1.99Zm3.322-3,0.959-.86v1.55l-0.959.96v-1.65Zm3.775-3.41v1.27l-1.858,1.87v-1.46Zm2.666-2.4v0.99l-1.707,1.72v-1.17Zm-9.763,11.93,1.693-1.65v1.82l-1.693,1.82v-1.99Zm6.29-6.12v1.34l-3.638,3.92v-1.72Zm3.473-3.38v0.99l-2.515,2.71v-1.26Zm-9.763,12.62,5.331-5.43v1.44l-5.331,5.98v-1.99Zm6.29-6.41,1.766-1.8v1.17l-1.766,1.98v-1.35Zm3.473-3.54v1l-0.749.84v-1.08Zm-7.879,11.03,1.438-1.56v1.65l-1.438,1.71v-1.8Zm7.879-8.52v0.99l-5.482,6.49v-1.55Zm0,2.66v0.99l-3.322,4.06v-1.33Zm-3.158-38.55v0.02l-0.046-.04Zm0,0v0.02l-0.046-.04Zm0,2.92v0.04l-0.105-.03Zm0,0v0.04l-0.105-.03Zm0,2.74v0.02l-0.014-.01ZM306.7,1062l1.438-1.7v1.64l-1.438,1.85V1062Zm7.879-9.32v0.99l-5.482,7.05v-1.56Zm-7.879,12.95,1.438-1.81v1.64l-1.438,1.97v-1.8Zm7.879-9.94v0.99l-5.482,7.48v-1.55Zm0-5.97v1l-3.322,4.06v-1.33Zm-3.158-36.16v0.02l-0.014-.01Zm-172.17-34.394h-1.988v-1.988h1.988v1.988Zm3.465,0H140.73v-1.988h1.988v1.988Zm3.466,0H144.2v-1.988h1.989v1.988Zm6.931,0h-1.988v-1.988h1.988v1.988Zm3.466,0h-1.989v-1.988h1.989v1.988Zm-17.328,3.563h-1.988v-1.988h1.988v1.988Zm6.931,0H140.73v-1.988h5.454v1.988Zm-6.931,3.563h-1.988V984.3h1.988v1.989Zm13.862,0H144.2V984.3h8.92v1.989Zm3.466,0h-1.989V984.3h1.989v1.989Zm-17.328,3.563h-1.988v-1.989h1.988v1.989Zm3.465,0H140.73v-1.989h1.988v1.989Zm13.863,0h-8.919v-1.989h8.919v1.989Zm-13.863,3.563H140.73v-1.989h1.988v1.989Zm3.466,0H144.2v-1.989h1.989v1.989Zm10.4,0h-1.989v-1.989h1.989v1.989Zm-17.328,3.563h-1.988v-1.989h1.988v1.989Zm6.931,0H144.2v-1.989h1.989v1.989Zm6.931,0h-1.988v-1.989h1.988v1.989Zm-10.4,3.559H140.73v-1.985h1.988v1.985Zm6.931,0h-1.987v-1.985h1.987v1.985Zm10.568,0h-5.625v-1.985h5.625v1.985Zm-20.964,3.57h-1.988v-1.99h1.988v1.99Zm13.862,0H144.2v-1.99h8.92v1.99Zm-10.4,3.56H140.73v-1.99h1.988v1.99Zm6.931,0h-1.987v-1.99h1.987v1.99Zm3.466,0h-1.988v-1.99h1.988v1.99Zm-10.4,3.56H140.73v-1.99h1.988v1.99Zm6.931,0h-1.987v-1.99h1.987v1.99Zm-10.4,3.56h-1.988v-1.98h1.988v1.98Zm6.931,0H144.2v-1.98h1.989v1.98Zm10.4,0h-1.989v-1.98h1.989v1.98Zm-17.328,3.57h-1.988v-1.99h1.988v1.99Zm3.465,0H140.73v-1.99h1.988v1.99Zm-3.465,3.56h-1.988v-1.99h1.988v1.99Zm13.862,0H144.2v-1.99h8.92v1.99Zm3.466,0h-1.989v-1.99h1.989v1.99Zm-13.863,3.56H140.73v-1.99h1.988v1.99Zm0,3.57H140.73v-1.99h1.988v1.99Zm6.931,0h-1.987v-1.99h1.987v1.99Zm6.932,0h-1.989v-1.99h1.989v1.99Zm-17.328,3.56h-1.988v-1.99h1.988v1.99Zm6.931,0H144.2v-1.99h1.989v1.99Zm10.4,0h-5.454v-1.99h5.454v1.99Zm-13.863,3.56h-5.453v-1.99h5.453v1.99Zm6.931,0h-1.987v-1.99h1.987v1.99Zm-3.465,3.56H144.2v-1.99h1.989v1.99Zm6.931,0h-1.988v-1.99h1.988v1.99Zm3.466,0h-1.989v-1.99h1.989v1.99Zm-17.328,3.57h-1.988v-1.99h1.988v1.99Zm3.465,0H140.73v-1.99h1.988v1.99Zm3.466,0H144.2v-1.99h1.989v1.99Zm10.4,0h-1.989v-1.99h1.989v1.99Zm-17.328,3.56h-1.988v-1.99h1.988v1.99Zm6.931,0H144.2v-1.99h1.989v1.99Zm6.931,0h-1.988v-1.99h1.988v1.99Zm-10.4,3.56H140.73v-1.99h1.988v1.99Zm6.931,0h-1.987v-1.99h1.987v1.99Zm6.932,0h-1.989v-1.99h1.989v1.99Zm-17.328,3.57h-1.988V1052h1.988v1.99Zm6.931,0H144.2V1052h1.989v1.99Zm14.033-74.824h-1.989v-1.988h1.989v1.988Zm3.465,0h-1.988v-1.988h1.988v1.988Zm6.931,0h-1.988v-1.988h1.988v1.988Zm3.465,0H172.09v-1.988h1.988v1.988Zm3.466,0h-1.989v-1.988h1.989v1.988Zm-17.327,3.563h-1.989v-1.988h1.989v1.988Zm6.93,0h-1.988v-1.988h1.988v1.988Zm6.931,0H172.09v-1.988h1.988v1.988Zm-3.465,3.563h-8.919V984.3h8.919v1.989Zm6.931,0h-1.989V984.3h1.989v1.989Zm-17.327,3.563h-1.989v-1.989h1.989v1.989Zm13.861,0h-5.453v-1.989h5.453v1.989Zm3.466,0h-1.989v-1.989h1.989v1.989Zm-17.327,3.563h-1.989v-1.989h1.989v1.989Zm6.93,0h-5.453v-1.989h5.453v1.989Zm3.466,0h-1.988v-1.989h1.988v1.989Zm6.931,0h-1.989v-1.989h1.989v1.989Zm-17.327,3.563h-1.989v-1.989h1.989v1.989Zm6.93,0h-1.988v-1.989h1.988v1.989Zm6.931,0h-5.74v-1.989h5.74v1.989Zm-10.4,3.559h-1.988v-1.985h1.988v1.985Zm10.4,0H172.09v-1.985h1.988v1.985Zm3.466,0h-1.989v-1.985h1.989v1.985Zm-17.327,3.57h-1.989v-1.99h1.989v1.99Zm6.93,0h-1.988v-1.99h1.988v1.99Zm3.466,0h-1.988v-1.99h1.988v1.99Zm6.931,0h-1.989v-1.99h1.989v1.99Zm-13.862,3.56h-1.988v-1.99h1.988v1.99Zm6.931,0h-1.988v-1.99h1.988v1.99Zm3.465,0H172.09v-1.99h1.988v1.99Zm3.466,0h-1.989v-1.99h1.989v1.99Zm-10.4,3.56h-8.919v-1.99h8.919v1.99Zm3.466,0h-1.988v-1.99h1.988v1.99Zm6.931,0h-1.989v-1.99h1.989v1.99Zm-3.466,3.56h-5.453v-1.98h5.453v1.98Zm3.466,0h-1.989v-1.98h1.989v1.98Zm-17.327,3.57h-9.09v-1.99h9.09v1.99Zm10.4,0h-1.988v-1.99h1.988v1.99Zm6.931,0h-1.989v-1.99h1.989v1.99Zm-13.862,3.56h-1.988v-1.99h1.988v1.99Zm3.465,0h-1.988v-1.99h1.988v1.99Zm10.4,0h-5.307v-1.99h5.307v1.99Zm-13.862,3.56h-1.988v-1.99h1.988v1.99Zm6.931,0h-1.988v-1.99h1.988v1.99Zm3.465,0H172.09v-1.99h1.988v1.99Zm3.466,0h-1.989v-1.99h1.989v1.99Zm-6.931,3.57h-8.919v-1.99h8.919v1.99Zm6.931,0h-1.989v-1.99h1.989v1.99Zm-17.327,3.56h-1.989v-1.99h1.989v1.99Zm17.327,0h-1.989v-1.99h1.989v1.99Zm-17.327,3.56h-1.989v-1.99h1.989v1.99Zm3.465,0h-1.988v-1.99h1.988v1.99Zm6.931,0h-1.988v-1.99h1.988v1.99Zm6.931,0h-5.307v-1.99h5.307v1.99Zm-10.4,3.56h-1.988v-1.99h1.988v1.99Zm6.931,0H172.09v-1.99h1.988v1.99Zm3.466,0h-1.989v-1.99h1.989v1.99Zm-17.327,3.57h-1.989v-1.99h1.989v1.99Zm3.465,0h-1.988v-1.99h1.988v1.99Zm3.465,0h-1.988v-1.99h1.988v1.99Zm10.4,0h-1.989v-1.99h1.989v1.99Zm-17.327,3.56h-1.989v-1.99h1.989v1.99Zm6.93,0h-1.988v-1.99h1.988v1.99Zm6.931,0H172.09v-1.99h1.988v1.99Zm-10.4,3.56h-1.988v-1.99h1.988v1.99Zm6.931,0h-1.988v-1.99h1.988v1.99Zm6.931,0h-1.989v-1.99h1.989v1.99Zm-17.327,3.57h-1.989V1052h1.989v1.99Zm6.93,0h-1.988V1052h1.988v1.99Zm10.4,0h-1.989V1052h1.989v1.99Zm-31.36,3.44H144.2v-1.99h1.989v1.99Zm10.4,0h-1.989v-1.99h1.989v1.99Zm3.636,0h-1.989v-1.99h1.989v1.99Zm6.93,0h-1.988v-1.99h1.988v1.99Zm-27.894,3.29h-1.988v-1.99h1.988v1.99Zm3.465,0H140.73v-1.99h1.988v1.99Zm10.4,0h-1.988v-1.99h1.988v1.99Zm7.1,0h-1.989v-1.99h1.989v1.99Zm17.327,0h-1.989v-1.99h1.989v1.99Zm-20.963,3.17h-1.989v-1.99h1.989v1.99Zm-6.932,0h-1.988v-1.99h1.988v1.99Zm24.429,0H172.09v-1.99h1.988v1.99Zm3.466,0h-1.989v-1.99h1.989v1.99Zm-38.291,3.16h-1.988v-1.99h1.988v1.99Zm24.429,0h-1.988v-1.99h1.988v1.99Zm-17.5,0H144.2v-1.99h1.989v1.99Zm24.429,0h-1.988v-1.99h1.988v1.99Zm6.931,0h-1.989v-1.99h1.989v1.99Zm-38.291,3.16h-1.988v-1.99h1.988v1.99Zm10.4,0h-1.988v-1.99h1.988v1.99Zm-6.931,0H140.73v-1.99h1.988v1.99Zm24.429,0h-1.988v-1.99h1.988v1.99Zm3.466,0h-1.989v-1.99h1.989v1.99Zm-31.36,3.16h-1.988v-1.99h1.988v1.99Zm24.429,0h-1.988v-1.99h1.988v1.99Zm-14.033,0h-1.988v-1.99h1.988v1.99Zm6.932,0h-1.989v-1.99h1.989v1.99Zm20.963,0h-1.989v-1.99h1.989v1.99Zm-38.291,3.32h-1.988v-1.98h1.988v1.98Zm24.429,0h-1.988v-1.98h1.988v1.98Zm-14.033,0h-1.988v-1.98h1.988v1.98Zm10.568,0h-1.989v-1.98h1.989v1.98Zm17.327,0h-1.989v-1.98h1.989v1.98Zm-13.862,3.12h-1.988v-1.98h1.988v1.98Zm-17.5,0H144.2v-1.98h1.989v1.98Zm10.4,0h-1.989v-1.98h1.989v1.98Zm-17.328,3.12h-1.988v-1.99h1.988v1.99Zm17.328,0h-1.989v-1.99h1.989v1.99Zm20.963,0h-1.989v-1.99h1.989v1.99Zm-13.862,3.12h-1.988v-1.99h1.988v1.99Zm-14.033,0h-1.988v-1.99h1.988v1.99Zm-10.4,3.12h-1.988v-1.99h1.988v1.99Zm17.328,0h-1.989v-1.99h1.989v1.99Zm20.963,0h-1.989v-1.99h1.989v1.99Zm-38.291,3.61h-1.988v-1.98h1.988v1.98Zm38.291,0h-1.989v-1.98h1.989v1.98Zm-20.963,3.62h-1.989v-1.99h1.989v1.99Zm20.963,0h-1.989v-1.99h1.989v1.99Zm-38.291,3.61h-1.988v-1.99h1.988v1.99Zm20.964,0h-1.989v-1.99h1.989v1.99Zm-3.636,3.61h-1.989v-1.99h1.989v1.99Zm0,3.45h-1.989v-1.99h1.989v1.99Zm20.963-3.45h-1.989v-1.99h1.989v1.99Zm2.931,3.45h-1.314v-128.9l1.314,2.084V1107.07Zm2.357-23.03h-1.044V981.418l1.044,2.083V1084.04Zm2.075-9.69h-0.656V984.859l0.656,2.083v87.408Z" transform="translate(-82 -867)"/>
</svg>
