<svg id="Слой_1" data-name="Слой 1" xmlns="http://www.w3.org/2000/svg" viewBox="0 0 1941 254.84">
  <defs>
    <style>
      .cls-1 {
        fill: #f7fcff;
        stroke-miterlimit: 10;
        stroke-width: 0px;
      }
    </style>
  </defs>
  <title>33333</title>
  <path class="cls-1" d="M1940,250.33v-235c-11.15,11.39-37,38.9-63.08,46.32-48.26,13.74-82.43-10.14-123.42-16.51-85.47-13.29-118.23,69.56-202.46,91.58C1419.61,171.07,1351.91-12.52,1223.2,5.78c-153.38,21.81-144.76,202.3-289.45,206.94-97,3.11-121.88-73.24-251-70.82-99,1.85-102.45,53.21-201.55,53-126.81-.23-154.73-80.68-237.62-55.95C166,162.13,150.45,255.52,61.06,245c-26.9-3.15-45-17.63-58-25.69v36H183Z" transform="translate(-1.01 -2.5)"/>
</svg>
