<svg xmlns="http://www.w3.org/2000/svg" xmlns:xlink="http://www.w3.org/1999/xlink" width="1017" height="510" viewBox="0 0 1017 510"><defs><path id="jgnsa" d="M1446.78 1621.27c5.01 4.01 10.52 8.02 18.03 8.02 7.51 0 0 12.03-5 13.53-5.02 1.5-5.02-3.5-9.52-6.01a9.05 9.05 0 0 0-5.1-1.18c-2.57.24-4.35 1.88-3.41 4.69.65 1.95-.1 2.4-1.54 2.08-1.68-.37-4.3-1.82-6.67-3.13l-.8-.45c-3.58-2-3.06.75.8 3.71 1.01.78 2.25 1.57 3.7 2.3 1.2.6 2.19 1.18 2.97 1.74v4.4c-.98.24-2.3.37-3.97.37-.98 0-1.87.08-2.7.22-3.17.54-5.3 2.03-6.99 3.91-1.46 1.64-2.6 3.56-3.83 5.4-.3.44-.59.78-.88 1.03-2.18 1.88-4.42-.85-7.3-2.04a6.1 6.1 0 0 0-2.33-.5c-.54 0-1.03.05-1.47.12-3.24.55-4.26 2.77-9.55 1.89l-.37-.07c-5.64-1.02-5.52-3-.13-5.44l.13-.07c4.1-1.93 2.37-4.41 0-4.3-.7.03-1.45.29-2.13.86a16.86 16.86 0 0 1-5.03 2.75c-2.57.89-5.12 1-5.99-.75a5.13 5.13 0 0 0-4.99-2.61c-1.96.14-4.16 1.31-6.02 4.12-1.6 2.38-3.02 4.84-4.49 6.8-1.5 2-3.03 3.46-4.8 3.72a4.48 4.48 0 0 1-2.73-.5c-4.54-2.28-8.26-.83-13.4-.55-.53.03-1.07.05-1.62.05-3.39 0-7.25-1.27-10.42-1.4-2.46-.1-4.51.5-5.6 2.9-2 4.39-4.62 9.4-8.64 11.78a9.75 9.75 0 0 1-3.38 1.25c-.34.06-.66.13-.96.22v5.9c.3 0 .62-.04.96-.1a12.6 12.6 0 0 1 3.39-.26c3.38.25 5.98 2.3 7.12 7.27 1.5 6.52-1.5 13.03-4.5 18.05-.88 1.46-1.72 3.28-2.62 5.18-1.23 2.57-2.59 5.31-4.35 7.6a13.76 13.76 0 0 1-5.05 4.26c-1.4.64-2.7.96-3.9 1.12-2.3.29-4.28-.03-5.92.08-1.52.11-2.75.6-3.7 2.3-2.31 4.18-1.63 6.64-5.88 7.77-.34.1-.71.18-1.13.25-4.92.9-1.45 2.2 1.13 6.04.31.45.6.95.88 1.48 2.5 5.01 7 12.53 2 13.53a6.7 6.7 0 0 1-2.88 0c-1.88-.44-3.22-1.8-4.07-3.59-.56-1.17-.9-2.52-1.06-3.92-.3-2.66-2.5-4.1-4.37-5.55-1.3-1.01-2.44-2.03-2.64-3.48-.4-2.8-1.13-5.93-5.5-7.07-1.1-.28-2.41-.44-4.02-.44-8 0-9.5 8.02-4.5 8.02s-2 11.02 2 15.53 8.51 13.53 4.5 17.54c-4 4.01-5 10.03-9 12.03-4.01 2-12.52 9.02-19.53 9.02-.91 0-1.88.07-2.85.2-6.53.9-13.66 4.73-10.17 10.83 4 7.02 7 12.03 7.5 15.04.51 3-5 5.5-8 11.02s-7.01 2.5-11.02-2a38.94 38.94 0 0 0-2.93-2.96c-3.48-3.16-7.08-5.16-7.08-2.06 0 4.01 0 11.53 3.5 13.04 1 .42 2.27 1.37 3.58 2.67 3.33 3.29 6.94 8.83 6.94 13.87 0 6.1-3.41.45-6.94-2.45a8.76 8.76 0 0 0-1.57-1.06c-4.01-2-2.5-10.53-6.51-13.03-4-2.5-6.01-5.02-2.5-12.03 3.5-7.02-.5-11.53-6.51-11.53-5.1 0-2.64-6.48-4.82-10.29a4.73 4.73 0 0 0-1.7-1.74c-5-3-10.5-6.51-17.52-2.5-7.01 4-15.02 11.52-17.52 12.02-.38.08-.67.33-.9.72-1.22 2.17-.33 8.57-1.6 12.82-1.5 5-4.01 9.02-7.52 8.52-2.27-.33-5.17-5.5-8.16-10.6-.6-1-1.19-2.01-1.78-2.97a58.3 58.3 0 0 0-1.78-2.74c-.43-.63-.87-1.21-1.3-1.74-4.5-5.5 2-20.54-2.5-20.54s-8.51-2-15.52-8.02-6.5-5.02-15.52-5.02-7.51 4.01-13.02 0a9.9 9.9 0 0 0-3.83-1.68c-1.1-.24-2.19-.33-3.23-.45-2.14-.24-4.13-.6-5.82-2.63-.58-.7-1.13-1.6-1.64-2.75-3.5-8.02-10.01-6.52-7.01-1.5 2.2 3.67 5.22 9.52 8.65 11.57 1.24.74 2.54.98 3.87.45a12.4 12.4 0 0 1 5.18-.89c3.49.1 6.83 1.56 8.84 3.9 3 3.5-7.01 15.54-8.51 19.55-.08.2-.2.4-.33.6-.6.87-1.76 1.67-3.23 2.42-1.66.84-3.7 1.62-5.82 2.38-3.92 1.4-8.03 2.7-10.15 4.12-1.7 1.13-3.54 2.97-5.4 4.27-3.11 2.14-6.31 2.8-9.12-3.77-.27-.62-.55-1.24-.85-1.87-4.81-10-13.88-20.74-17.18-29.7-3.5-9.53-7-15.54-10.51-15.04-3.5.5 4.5 18.54 8 25.06 3.51 6.51 7.52 17.04 13.53 23.05a29.87 29.87 0 0 0 6.16 4.83c3.4 1.96 6.81 2.75 9.96 2.2.65-.12 1.28-.29 1.9-.51 5.51-2 11.52-2.5 7.51 7.01-1.98 4.72-5.57 10.43-9.4 15.53-3.44 4.56-7.08 8.64-9.97 11.11-.4.34-.79.65-1.16.93-6 4.51-7.5 15.04-11.01 16.54-3.5 1.5 1 4 3 8.02 2 4 2.5 17.04 0 22.05-2.5 5.01-7 11.03-11.01 11.53-4 .5-4.5 7.52-1.5 9.52s-1 6.52-7.01 7.02.5 18.54-5.01 19.04c-5.5.5-12.02 7.52-20.03 8.52-7.32.92-15.9 3.93-20-.54-.38-.42-.73-.9-1.03-1.46-3.5-6.52 2.5-10.53-3.5-17.54-6.01-7.02-2.5-13.03-7.01-19.55-4.5-6.52-9.01-18.04-4.5-24.06 4.5-6.01 6.5-10.52 2.5-12.03-4.01-1.5 2-8.52-3.51-12.02-5.5-3.51-9.01-13.04-7.01-17.55 2-4.5 2.5-12.02-4-12.02-4.81 0-11.8-2.74-17.76-3.36a19.29 19.29 0 0 0-3.28-.09c-.88.06-1.72.2-2.5.44l-8.94 2.75c-2.56.8-4.88 1.53-7.08 2.26-1.74.58-4-.4-6.5-2.21-3.97-2.88-8.53-7.82-12.53-11.82-2.91-2.92-6.94-6.55-10.04-10.07a31.92 31.92 0 0 1-3.08-4c-1.75-2.8-2.29-5.28-.4-6.98l.4-.37c3.9-3.69 2.14-4.94 0-7.5-.3-.36-.6-.74-.9-1.15-1.66-2.33-.68-6.2.9-9.56a29.6 29.6 0 0 1 2.6-4.48c.17-.22.33-.48.48-.78 2.24-4.23 3.86-14.79 8.54-15.26 5-.5 8.51-6.01 8.51-10.52 0-3.54 2.17-6.78 5.52-8.49.92-.47 1.92-.82 3-1.03 4.03-.81 5.46-3.24 10.58-4.16 1.23-.22 2.68-.35 4.44-.35 2.83 0 5.03-.45 7-1.06 1.14-.36 2.2-.77 3.28-1.18 2.96-1.14 5.97-2.27 10.74-2.27 9.52 0 16.53-3.51 15.53 4-1 7.52 8.5 9.03 13.52 12.03a57.15 57.15 0 0 0 6.03 3.28c3.48 1.53 6.72 2.07 7.98-.77 2-4.51 8.52-3 14.02-2 5.51 1 15.03 3 20.03 2.5 5-.5 10.02-5.01 10.52-9.52s-6.51-5.52-15.02-5.52c-8.52 0-12.02-1.5-10.52-6.51s4-9.52 8.51-11.53c4.5-2 8.52-3 13.02-3s10.51 3.5 16.02 3 3.5-5.51-2-8.52c-5.5-3-6.51-7.52-4-10.02 2.5-2.5 1-5.01-3.5-2.5-4.52 2.5-11.02 9.01-12.53 5-1.5-4-12.52-.5-12.52 5.52 0 6.01 1.5 7.01-.5 11.02s-6.5 7.02-10.51 6.52c-4-.5.5 7.02-3.5 9.02-4.01 2-6.01-3-8.52-8.02-2.5-5-4.49-8-6.98-10.99l-.03-.03c-2.5-3.01-4-4.52-7.5-7.52-3.51-3.01-6.52-1-3.01 2.5 3.5 3.51 4.5 5.02 8.51 5.02 1.05 0 1.68.47 2.03 1.23v5.07c-.3 1.41-.71 2.77-1.03 3.72-1 3-6.5 12.53-6.5 5.51s-.5-12.03-6.02-14.03c-5.5-2-6.5-7.52-14.52-7.52-8 0-17.52-2-16.02 3.5 1.37 5.02.67 9.61-1.73 10.41-.24.08-.5.12-.77.12-.83 0-1.7.04-2.51.17-2.13.34-3.86 1.3-3.5 3.84.5 3.51-1 3.01-3.5 5.02-1.2.95-2.73 2.02-4.44 2.6a6.8 6.8 0 0 1-6.08-.6c-2-1.25-5-.88-7.5-.82-2.5.07-4.52-.18-4.52-2.69 0-5.01-3.5-7.02-1-11.53 2.5-4.5 0-9.02 5-9.02h.52c4.57.07 5.7 1 11 1 .9 0 1.77-.14 2.58-.4 4.16-1.35 6.7-5.76 2.93-9.12-4.5-4-3-9.52-.5-14.03 2.36-4.25 3.83-2.72 9-3.78a23.54 23.54 0 0 0 3.3-.94c5.2-1.92 10.18-5.75 13.24-8.81 3.5-3.51 2.5-11.03 6.5-11.03 4.01 0 1.51 4.51 8.02 4.51 6.5 0 8.01-2.5 13.52-2.5 1.63 0 3.13.4 4.53.86 3.35 1.1 6.17 2.6 8.99.14 4-3.5-3-9.52 3-9.52 6.01 0 11.02.5 6.5-4.01-4.5-4.51 1.51-2 6.52-4.51 5-2.51 4.5-6.52-1.5-5.52-6.01 1-11.02 4.51-13.52-1.5-2.5-6.02 5-13.03 9-17.54 4.02-4.51-6.5-6.52-8-1-1.5 5.5-7.51 8.01-9.51 13.53-2 5.51 5.5 10.52 1.5 14.53a32.69 32.69 0 0 0-2.98 3.51c-2.07 2.75-3.55 5.01-6.03 5.01-3.51 0-6.51 7.52-8.02 2.5-1.5-5-4.5-10.52-8-8.01-3.51 2.5-3.01 11.02-7.52 4-4.5-7-8.5-17.03-3.5-22.55 5-5.5 12.01-10.02 16.02-15.53 3.37-4.65 10.65-14.62 17.05-18.55 1.2-.74 2.37-1.26 3.48-1.5 7-1.5 17.02-10.53 25.03-7.02 8.01 3.51 11.02 2.5 17.03 7.02 6 4.51 5.5 7.02 12.01 8.02s8.01 9.52 0 9.52c-8 0-13.02-4.5-16.02-2s3 5 6 8.52c3.01 3.5 8.52 6.01 11.03 4.5 2.5-1.5-5.01-6.5.5-5 5.5 1.5 11.01 2 7.5-1-3.5-3.01 1.5-4.01 7.02-4.01l.15-.01c5.21-.23-2.1-12.02 3.35-12.02 5.5 0 1 13.03 5 9.52l1.61-1.38c3.73-3.12 8.32-6.33 14.42-7.64.44-.1.82-.16 1.14-.19 4.86-.48-2.23 5.54 3.87 3.2a94.85 94.85 0 0 1 5.18-1.82c5-1.6 10-2.7 13.34-2.7 4.5 0 1-5 5.51-5 4.5 0 6.51 6 12.52 6 6 0 2.5-1.5 2.5-6 0-4.52 3.5-17.05 8.51-18.05s3.5 6.51 5.01 14.53c1.5 8.02-.5 11.03-4 15.54s-1 8.02 6 5.01c.95-.4 1.7-.84 2.3-1.3.84-.64 1.4-1.31 1.78-1.98 1.1-1.9.82-3.72 1.78-4.43.27-.2.63-.3 1.15-.3 3.5 0 7.01 6 12.02 6 5 0 .5-7.51-5-10.02-2.7-1.22-5.87-1.37-8.17-1.67a11.8 11.8 0 0 1-1.78-.33c-1.26-.37-1.8-1.04-1.07-2.5.98-1.96-.08-4.64-.7-7.27v-4.95a4.84 4.84 0 0 1 2.2-2.32 3.68 3.68 0 0 1 1.35-.55c2.98-.3-3.88 11.13 5.16 7.06 10.01-4.5 2-4 7-5 2.38-.48 3.99.3 5.13 1.56 1.26 1.4 1.95 3.4 2.5 4.94 1.06 2.94 7.47 8.62 9.88 12.52 2.42 3.89 4.2 5.04 4.2 1.47 0-3.58-3.15-8.2-5.25-9.68-2.1-1.47.63-9.78-4.1-11.78-4.72-2-7.88-7.89-1.89-8.62 6-.74 7.2-1.34 10.08-4.22 2.89-2.88 12.2-6.43 20.17-8.43.73-.18 1.41-.32 2.04-.4 6.16-.9 7.35 2.23 10.37.62 3.32-1.77 9.53 2.44 11.3-1.77.09-.21.17-.43.24-.66 1.4-4.2.3-10.02 6.44-10.64 9.01 0-.5 8.52 5.5 8.02 4.17-.35 8.34.75 12.68 1.46 1.91.3 3.86.54 5.85.54 6.51 0 1 7.02-5.5 8.52l-.35.08c-6.4 1.57-12.73 5.52-15.68 10.45-3 5 3 6.51 7.01 2.5 2.72-2.72 4.51-5.43 8.67-6.28 1.97-.4 4.47-.38 7.85.27 10.33 1.97 16.8.55 25.55 3.82l.5.19c2.49.97 5.1 1.48 7.64 1.87 1.88.29 3.71.51 5.43.8 1.46.26 2.84.56 4.07 1 2.44.87 4.35 2.27 5.38 4.85 1.24 3.09 2.55 3.55 4.2 3.03 1.6-.5 3.5-1.94 5.92-2.81 1.17-.43 2.46-.72 3.9-.72 2.03 0 3.66.03 5.05.03 1.7 0 3.04-.08 4.35-.35 1.59-.34 3.11-.98 5.12-2.19a40.74 40.74 0 0 1 9.1-3.69c4.35-1.19 8.06-1.38 6.92 1.19-2 4.5 1.5 8.52 3.5 5.5.53-.77 1.05-1.56 1.62-2.2 1.64-1.85 3.7-2.63 7.4.7 2.33 2.1 5.53 3.12 8.74 3.6 1.64.25 3.28.36 4.8.4 1.92.06 3.65.01 4.99.01 2.08 0 3.84 2.14 5.52 4.44 1.97 2.68 3.84 5.59 6 5.59 1.62 0 3.25-.33 4.98-.7 2.17-.44 4.48-.94 7.16-.88.45 0 .9.03 1.37.08 4.83.43 2.73-1.82 8.55-.36.82.2 1.8.48 2.97.86l.82.25c8.66 2.69 8.07 1.59 4.18-3.76-2.67-3.68-.44-4.01 3.13-2.93a36.55 36.55 0 0 1 5.89 2.43c1.8.9 3.78 1.53 5.81 2.08 2.23.6 4.51 1.11 6.67 1.77 1.77.54 3.45 1.19 4.95 2.07.56.33 1.1.69 1.6 1.1zm-1.48-15.07c2.82-.18 6.58 4.9.94 4.9a8.4 8.4 0 0 1-1.05-.07v-4.83zm-3.07 305.6c-.23 1.16-1.03 2.5-1.99 2.47-.35-.02-.72-.21-1.1-.67-1.37-1.7-1.27-2.76.54-3.3.2-.1.38-.18.56-.24 1.32-.41 2.27.33 1.99 1.73zm-6.67 2.33c-.23 1.17-1.03 2.5-1.99 2.47-.35 0-.72-.2-1.1-.66-1.37-1.7-1.27-2.77.54-3.3.2-.1.38-.18.56-.24 1.32-.42 2.27.33 1.99 1.73zm-6.14 77.06a9.97 9.97 0 0 1-2.84-1.37c-1.75-1.3-2.45-3.31-3.16-7.31a25.93 25.93 0 0 0-1.55-4.85c-1.98-4.91-4.59-10.01-1.12-10.5.4-.1.77-.13 1.12-.12 2.69.07 3.62 2.9 4.71 5.85.96 2.58 2.04 5.26 4.51 6.28 1.21.5 2.01 1.4 2.48 2.48v6.03c-.8 2.35-2.41 4.09-4.15 3.5zm-7.55-2.27v10.82l-.12.13c-1.72 1.86-4.48 3.67-7.19 5.57a50.72 50.72 0 0 0-3.79 2.88c-1.98 1.7-3.55 3.53-4.03 5.57-1.33 5.68-2.66-5.34-3.66-8.35-.9-2.66 2.68-5.59 7.7-7.15.63-.2 1.3-.37 1.97-.52.8-.18 1.38-.45 1.81-.8 2.85-2.21-.7-7.35 6.53-8.22.27 0 .53.03.78.07zm-5.32-145.9c-.23 1.17-1.03 2.5-1.99 2.47-.35 0-.72-.2-1.1-.66-1.37-1.7-1.27-2.77.54-3.3.2-.1.38-.18.56-.24 1.32-.42 2.27.33 1.99 1.73zm-4.13 74.39c-.56 0-1.11-.1-1.65-.29-3.94-1.36-6.88-7.1-3.36-7.39 1.12.09 2.3.64 3.36 1.41 3.06 2.22 5.11 6.27 1.65 6.27zm.57-229.4a5.04 5.04 0 0 1-2.22-.75c-2.39-1.42-4.22-4.32-2.48-4.32.65.1 1.57.59 2.48 1.21 2.28 1.55 4.5 4 2.22 3.87zm-7.91 241.75a8.74 8.74 0 0 1-4.23-.92c-3.96-1.9-6.14-6.09-1.1-6.09.35 0 .72.05 1.1.13 4.28.92 9.74 6.58 4.23 6.88zm-3.18-259.23c-.36 0-.71-.06-1.05-.15-2.5-.7-4.11-3.64-.64-3.8.22 0 .43.02.64.06 2.59.5 3.84 3.89 1.05 3.89zm-7.48 229.01c-.24 0-.48-.01-.73-.05-4.12-.56-8.11-5.6-3.18-5.6.83 0 2.09.69 3.18 1.58 2.06 1.67 3.56 4.07.73 4.07zm2.97-221.49c-2.54.34-.65 10.46-3.7 10.24a2.6 2.6 0 0 1-1.18-.46c-4.7-3-3 .75-5.45 4.51-.88 1.35-2.55 2.24-4.35 2.67-3.22.77-6.87.07-7.11-2.1-.38-3.39 1.31-7.53.18-10.35-1.12-2.82-2.06-3.95 3.57-8.84a36.97 36.97 0 0 0 3.36-3.34c3.16-3.54 4.92-6.35 8.67-6.06.74-.07 1.54.4 2.31 1.22 3.15 3.32 5.96 12.2 3.7 12.51zm-2.44-64.32c-.42 0-.84-.07-1.26-.2-2.54-.73-4.53-3.38-.8-3.38.28-.01.55 0 .8.03 2.97.36 4.03 3.55 1.26 3.55zm-7.05 277.02c-1.45.17-3.34-.03-5.19-.44-4.82-1.07-9.3-3.57-4.59-4.78 1.2-.19 2.9.08 4.6.59 4.43 1.31 8.95 4.2 5.18 4.63zm-13.7 51.76c-.24 1.16-1.04 2.5-2 2.47-.34-.01-.72-.2-1.09-.67-1.38-1.7-1.27-2.76.53-3.3.2-.1.38-.18.56-.23 1.32-.42 2.27.32 2 1.73zm-3.03-62.54c-1.2 0-2.51-.46-3.77-1.14-4.03-2.2-7.38-6.76-3.4-6.26.74 0 2.03.6 3.4 1.45 1.92 1.2 3.97 2.9 4.8 4.18v1.59c-.22.11-.57.18-1.03.18zm-3.77 60.6v14.5a45.5 45.5 0 0 1-1.68 6.4c-2.37 6.87-8.29 19.58-14.46 22.61-1.63.8-3.28.94-4.88.1a24 24 0 0 0-7.15-2.35c-3.8-.7-6.73-.9-9.53-5-2.07-3.02-3.53-6.96-4.7-9.88-1.3-3.22-2.26-5.22-3.3-3.47-1.25 2.07.09 3.63-1.05 3.07-.7-.34-2.3-1.46-5.96-3.74a28.83 28.83 0 0 0-2.99-1.63 19.53 19.53 0 0 0-5.92-1.78c-4.38-.54-7.44.9-9.58 1.37l-.18.04c-.99.2-2.38.01-3.89-.21-1.81-.27-3.8-.6-5.43-.41-1.6.18-2.9.87-3.36 2.62a6.27 6.27 0 0 1-4.78 4.68 18 18 0 0 1-5.89.33c-4.33-.33-7.67 3.67-10.67 1.67s2.33-5.34-1-13.02c-3.34-7.68-3-16.02-5.34-20.03-2.33-4 .67-12.69 9-13.02 8.34-.33 13.35-2 13.35-5.01 0-1.8-.6-3.35.55-4.3.78-.66 2.35-1.04 5.45-1.04 1.3 0 2.14-.27 2.7-.7 2.72-2.19-1.74-8.65 4.64-8.65.27 0 .53.01.78.03 2.03.14 3.26.82 4.07 1.68 1.9 1.98 1.57 4.87 3.82 3.97 3.33-1.34.67-7.68 5-7.68a4 4 0 0 0 .76-.07c3.33-.64 2.55-5.5 5.92-4.09l.33.15c4 2 6.33 5.01 7.67 10.35.33 1.35.6 2.42.95 3.28.72 1.81 1.76 2.68 4.34 3.2 1.06.23 2.38.39 4.05.53 5.33-.33 5-8.68 5-13.35 0-2.83 2.7-4.44 5.19-3.33 1.62.71 3.16 2.58 3.81 6 .77 3.99 4.21 9.95 8.22 15.65 4.73 6.7 10.24 13.05 13.13 15.4 1.43 1.16 2.4 2.96 3.01 5.13zm-12.47 50.64c-.47 2.35-1.88 4.98-3.67 5.77-1.16.52-2.49.26-3.82-1.37-3.35-4.14-3.1-6.72 1.3-8.01.9-.48 1.75-.75 2.52-.84 2.58-.28 4.27 1.48 3.67 4.45zm-2.55-101.45l-1.12-.22c-5.47-1.2-7.07-3.65-10.07-2.83-.63.17-1.29.51-1.96.92-2.75 1.62-5.82 4.22-8.7.39a49.06 49.06 0 0 1-5.53-7.42c-3.24-5.22-5.5-10.8-2.3-11.07a9.93 9.93 0 0 1 2.3.07c4.28.55 10.64 2.9 13.68 2.54l.55-.05c3.78-.2 10.39 1.76 9.95 5.49-.15 1.31.89 3.25 2.08 5.2 2.37 3.83 5.36 7.7 1.12 6.98zm.15-303.83c-.45 0-.87-.04-1.27-.1-4.25-.66-5.83-4.53-.21-4.08h.21c2.91.2 6.3 4.18 1.27 4.18zm-10.66 138.52c1.74.4 5.07 1.72 2.52 3.22-2.56 1.5-3.68 4.79-4.79 3.82l-.37-.34c-1.31-1.2-3.75-3.64-2.57-1.05 1.32 2.88 1.1 3.65-.26 3.54-1.35-.1-2.99-3.16-3.25-5.18-.26-2.02 2.67.39 3.5-1.6.85-1.98-1.68-8.07.85-6.9.76.3 1.3.67 1.73 1.1 1.32 1.34 1.32 3.09 2.64 3.4zm-.33-4.51c-.34.44-1.26.15-2.31-.5-2.68-1.66-6.23-5.64-3.38-5.9.9-.06 2.22.72 3.38 1.79 1.68 1.55 3.03 3.69 2.31 4.6zm.18-13.82c-1.9-.35.69 5.87-2.42 3.46l-.07-.07c-3.04-2.47-3.02-9.6-.45-8.74.15 0 .3 0 .45.03 3.27.43 4.3 5.65 2.49 5.32zm-1.56-15.2a3.84 3.84 0 0 1-.93-.18c-2.52-.8-4.32-3.87-.62-3.1.22 0 .42 0 .62.03 3.1.36 3.7 3.41.93 3.25zm1.15-111.6c0 1.42-.83 2.38-2.08 3.06-2.44 1.31-6.48 1.52-9.1 1.82-1.75.21-4.02-1.24-5.13-2.95v-3.5c.73-.7 2.13-1.18 4.44-1.24 3.71-.3 7.51-.78 9.79 0 1.29.43 2.08 1.28 2.08 2.8zm-4.76 16.94c-5.65.25-6.38-4.43-1.23-4.92a5.1 5.1 0 0 1 3.9 1.03v3.15c-.57.4-1.44.69-2.67.74zm2.38 144.12c-1.12 1.35-1.47 3.56-1.7 5.72-.25 2.15-1.6 4.64-3.39 5.06-1.78.42-3.4.64-3.85 1.96-.46 1.33-1.8 1.22-2.64-.49-.54-1.09-1.15-2.32-2.36-2.76-.68-.25-1.55-.24-2.7.19-.69.25-1.24.32-1.64.24v-2.54c.33-.33.76-.64 1.28-.9a6.36 6.36 0 0 1 3.06-.6c1.73.01 3.26.22 4.33-1.66 1.67-2.96 3.7-1.64 4.46-4.3.75-2.65.64-6.2 2.78-5.6 1.08.24 2.43 2.41 2.67 4.1v.9c-.05.27-.14.5-.3.68zm-13.24 11.8c.98 1.37.71 1.76-.7 3.3l-.07.1c-1.34 1.46-1.88-3.18.08-3.47.2-.03.43-.01.7.07zm-5.81 6.61c-3.52 3.15-4.52-6.35-1.52-5.75.74-.25 1.65.07 2.3.73v4.2c-.22.28-.47.55-.78.82zm-5.86 116.83c-.78 0-1.57-.18-2.32-.48-3.42-1.37-5.88-5.18-1.6-5.18.45 0 1 .2 1.6.51 2.61 1.39 5.86 5.15 2.32 5.15zm-8.03-113.53c1.38.52 3.8 6.74-.17 4.49l-.04-.02v-4.58l.21.1zm-7.8 22.89c-.23 1.16-1.03 2.5-1.99 2.47-.35-.01-.72-.2-1.09-.67-1.38-1.7-1.27-2.76.53-3.3.2-.1.38-.18.56-.23 1.32-.42 2.27.32 2 1.73zm-.43-188.58c4.35-.4 7.7 5.75 2.12 5.05l-3.68-.45a39.2 39.2 0 0 1-4.07-.72 17.28 17.28 0 0 1-6.22-2.8c-4.2-3.02-5.82-6.29-3.17-6.22 1.14-.57 2.5-.35 3.96.23 1.73.68 3.6 1.89 5.43 2.93 1.42.81 2.8 1.53 4.07 1.84.55.13 1.07.19 1.56.14zm-8.61 293.36c-.27 1.35-1.3 2.92-2.45 2.35a2 2 0 0 1-.64-.54c-1.38-1.7-1.27-2.77.53-3.3l.11-.05c1.55-.77 2.76-.02 2.45 1.54zm1.62-48.51c-.48 2.39-2.12 5.12-4.07 5.06-.72-.02-1.48-.43-2.24-1.36-2.82-3.48-2.6-5.66 1.1-6.74.39-.22.77-.38 1.14-.5 2.7-.85 4.64.67 4.07 3.54zm-11.09 32.84c-.37 0-.75-.05-1.12-.16-3.7-1.05-6.82-6.82-3.66-7.01.84 0 2.35 1.06 3.66 2.37 2.1 2.1 3.66 4.8 1.12 4.8zm.22-49.15c-.43.33-.89.44-1.34.4-2.5-.26-4.83-5.44-1.7-5.62.56 0 1.15.14 1.7.38 2.03.89 3.56 3.13 1.34 4.84zm-1.3-27.63h-.04c-3.01-.49-4.08-7.6-.18-6.96h.18c4.13.21 3.04 7.4.04 6.96zm-1.3 16.1c-5.44-.65-6.31-6.96-.66-7.18.71 0 1.36.26 1.92.68v6.48c-.36.07-.78.08-1.27.02zm-31.46 73.56c-.23 0-.46 0-.68-.02-7-.25-9.47-4.31-1.63-4.03.57 0 1.11.03 1.63.09 5.25.6 7.51 3.96.68 3.96zm2.55-29.19c7.82-4.13 10.43-12.18 15.43-12.18 3.04-.22 3.26 4.35 2.4 9.79-.88 5.44-9.13 19.57-11.96 19.36-2.83-.22-7.17-2.61-8.7-5.66l-.4-.77v-8.28c.76-.75 1.8-1.5 3.23-2.26zm-2.82-49.37l-.41-.16c-2.5-1.14-3.13-5.09-.25-5.5.09 0 .17 0 .25.02 2.42.4 3.14 6.48.4 5.64zm-12.44 70.75c.23 6.25-7.12 3.42-12.59-.92a25.97 25.97 0 0 1-3.58-3.42c-4.91-5.78-13.58-17.63-6.07-18.2 2.98-.3 6.4 1.24 9.65 3.7 6.54 4.94 12.4 13.63 12.6 18.84zm-32.51-37.91c-.23 1.16-1.04 2.5-1.99 2.47-.35-.01-.72-.2-1.1-.66-1.38-1.7-1.27-2.77.54-3.3.2-.1.38-.18.56-.24 1.32-.42 2.27.33 1.99 1.73zM1199.2 1551c3.44-2.45 16.71-1.96 12.04-.98-4.67.98-5.4 9.35-10.56 9.35-.79 0-1.47-.2-2.05-.55v-7.83c.18-.01.37 0 .57.01zm-37.03 293.25c-.42.15-.8.2-1.17.16-3.71-.38-5.18-9.15-.77-8.52.26-.05.52-.05.77-.02 3.17.43 5.36 6.9 1.17 8.38zm-18.38 13.3c1.6-.85 2.87-.11 2.55 1.49-.28 1.42-1.41 3.1-2.63 2.23a2.3 2.3 0 0 1-.45-.43c-1.36-1.67-1.28-2.73.45-3.27zm.29-4.66c-.08.36-.2.75-.37 1.1-.41.83-1.06 1.5-1.78 1.36-.3-.06-.62-.26-.93-.65-.43-.52-.71-.98-.85-1.39v-.99c.19-.4.64-.7 1.38-.92.13-.07.27-.13.4-.18.74-.28 1.38-.2 1.78.14.35.32.5.84.37 1.53zm1.61-6.14c-.23 1.16-1.03 2.5-1.98 2.47-.36-.01-.73-.2-1.1-.67-.3-.36-.52-.7-.68-1v-1.62c.24-.28.64-.5 1.21-.67.2-.1.39-.19.57-.24 1.31-.42 2.27.32 1.98 1.73zm-3.55-3.89c-.05.24-.12.49-.21.73-.36.93-1.02 1.77-1.78 1.75-.35-.01-.72-.2-1.1-.67-1.37-1.7-1.27-2.76.54-3.3.2-.1.38-.18.56-.23.78-.25 1.44-.1 1.78.37.24.32.32.79.21 1.35zm-1.3-13.9a4.46 4.46 0 0 1-.69 1.64c-.6.86-1.5 1.26-2.39.17-1.38-1.7-1.27-2.77.54-3.3.72-.39 1.38-.44 1.85-.24.57.24.87.86.7 1.73zm-50.4 48.51c-.23 1.17-1.03 2.5-1.98 2.47-.35 0-.73-.2-1.1-.66-1.38-1.7-1.27-2.77.53-3.3.2-.1.39-.18.57-.24 1.31-.42 2.27.33 1.99 1.73zm11.57-299.8c11.32 0 4.53-6.23 17.54-2.83 7.36-.57 1.13 8.5-5.1 8.5-6.22 0-20.93 12.46-22.63 18.69-1.19 4.37-1.27 9.87-3.36 10.79-.76.33-1.79.06-3.23-1.08-.24-.2-.5-.4-.76-.65-5.97-5.43-6.22-16.59.76-19 .3-.1.6-.19.93-.26.9-.2 1.65-.52 2.3-.96 5.05-3.4 3.51-13.2 13.55-13.2zm-14.8 266.81c-.23 1.17-1.03 2.5-1.98 2.47-.35 0-.73-.2-1.1-.66-1.38-1.7-1.27-2.77.53-3.3.2-.1.38-.18.57-.24 1.31-.41 2.26.33 1.98 1.73zm-5.81-15.2c-.23 1.17-1.04 2.5-1.99 2.47-.35 0-.72-.2-1.1-.66-1.37-1.7-1.27-2.77.54-3.3.2-.1.38-.18.56-.24 1.32-.41 2.27.33 1.99 1.73zm-11 70.92c5.82-.32 5.82 6.8 1.95 10.03-3.88 3.23 3.87 19.4-.33 21.02-2.95 1.14-5.26 6.58-8.17 10.06-1.23 1.47-2.57 2.59-4.1 2.88-5.17.97-2.91-11-5.82-14.23l-.04-.06v-10.86c.7-1.92 1.65-3.52 2.63-4.28 1.61-1.26 4.43-5.52 7.33-9.11 2.32-2.86 4.7-5.3 6.56-5.45zm-14.53-.42c-.23 1.17-1.03 2.5-1.98 2.48-.35-.01-.73-.2-1.1-.67-1.38-1.7-1.27-2.76.54-3.3.19-.1.37-.18.56-.23 1.31-.42 2.26.32 1.98 1.72zm-72.7-343.07c11.89 0 8.5 2.83 14.15 6.8 5.66 3.96-1.7 13.6-9.62 7.93-6.54-4.68-4.6 3.77-7.54 4-.62.04-1.46-.28-2.65-1.17-6.78-5.1-7.92-9.06-.56-9.63 7.36-.56-6.79-6.23-10.19-2.26-3.4 3.96-10.75-9.63-.56-9.63 8.86 0 8.3.43 13.96 2.77.85.36 1.83.75 3.01 1.2zm-46.84 136.02c-.23 1.17-1.03 2.5-1.99 2.47-.35 0-.72-.2-1.09-.66-1.38-1.7-1.28-2.77.53-3.3.2-.1.38-.18.56-.24 1.32-.42 2.27.33 2 1.73zm-3.29-16.79c-.23 1.17-1.03 2.5-1.98 2.48-.35-.02-.73-.21-1.1-.67-1.38-1.7-1.27-2.76.53-3.3.2-.1.39-.18.57-.24 1.31-.41 2.26.33 1.98 1.73zm-7.02 6.52c-1.13 3.97 6.8 16.43-.57 16.43-2.1 0-4.07.65-5.83 1.4-4.4 1.88-7.5 4.42-8.31-.84-1.13-7.36-1.7-6.8 5.09-9.63 6.8-2.83-2.83-20.95 2.27-20.39.33-.04.64-.07.95-.08 7.01-.2 7.48 9.31 6.4 13.11zm-19.24-1.13c4.53-.57 4.53 8.5 2.26 13.6a4.98 4.98 0 0 1-3 2.9c-2.48.76-5.12-1.13-4.35-4.6 1.1-4.94-2.58-12.52 4.35-11.98.24.01.48.04.74.08zm.57-75.34c3.96 0 6.79 6.8 1.7 6.8a5.65 5.65 0 0 1-3-.9v-5.9c.38-.04.8-.04 1.3 0zm-21.9 156.33c-.23 1.17-1.03 2.5-1.98 2.47-.35 0-.72-.2-1.1-.66-1.38-1.7-1.27-2.77.54-3.3.19-.1.38-.18.56-.24 1.32-.42 2.27.33 1.99 1.73zm2.1-119.51a20.42 20.42 0 0 1-7.16 5.19c-3.95 1.63-8.68 1.78-13.22-1.8-7.92-6.22-2.83-15.85 2.26-13.59 5.1 2.27 6.8 1.7 10.75 2.27l.21-.06c1.11-.32 2.14-.46 3.08-.45 5.15.05 7.39 4.64 4.07 8.44zm4.9-91.62c-2.74.32-6 .53-8.98.82-1.08.1-2.12.22-3.08.36-4.2.58-6.87 1.52-4.57 3.57 4.28 3.8-7.12 7.13-.95 10.46 6.18 3.33 4.28 10.93-1.9 10.93-6.17 0 .48 4.28-4.27 9.03-4.75 4.76-3.32 8.08-9.97 8.08s8.07 10.46.47 10.46c-7.6 0-9.97 9.5-2.37 8.56 7.6-.96 7.12 2.37-.95 6.17s-20.9 3.8-24.7 9.98c-3.79 6.18-18.03 5.7-18.03 11.41 0 5.7-2.38 26.62-13.3 22.82-10.92-3.8-13.3-14.74-17.57-21.4-4.27-6.65 2.37-13.77-1.9-16.15-4.27-2.38 9.5-13.31 4.75-9.98-4.75 3.32-12.35-1.43-5.7-2.85 6.65-1.43 4.28-8.08-.47-6.66-4.75 1.43-9.98-.95-3.8-5.7 6.17-4.76 3.32-3.33-.95-4.76-2.05-.68-2.68-3.12-3.73-5.68-1.13-2.77-2.75-5.69-7.2-6.67-4.32-.97-9-.59-13.38-.48-2.17.06-4.25.05-6.18-.21a13.29 13.29 0 0 1-5.12-1.69c-2.55-1.57-1.46-3.3.27-4.83 2.46-2.17 6.2-3.92 2.58-4.2a19 19 0 0 0-2.58.01c-3.94.25-8.97 1.3-11.9.9-1.95-.25-2.97-1.13-2.14-3.29.74-1.94 1.35-3.27 2.14-4.18 1.72-2 4.31-2 11.15-2l.75-.01c2.18-.09 3.76-.54 4.85-1.2 2.92-1.78 2.21-5.06 0-6.66-.4-.29-.84-.52-1.33-.68-3.67-1.23-5.94-6.31 1.33-7.72 1.19-.23 2.63-.36 4.37-.36.64 0 1.24-.02 1.8-.06 10.34-.76 8.74-7.97 19.1-7.07.52.04 1.02.1 1.5.18 9.47 1.43 10.16 7.83 15.59 6.47 5.7-1.42-6.65-13.78 7.6-5.22 14.24 8.55 3.8-.96 9.97-.96 6.17 0-4.28-9.03 6.65-8.55 10.92.47 10.92-6.18 24.69-6.18 16.62 0 46.53 13.78 31.34 11.88-15.2-1.9-35.62-2.37-26.12 3.33 9.5 5.7 11.4-5.23 14.72 0 3.32 5.23 9.02 0 12.82 3.33 3.5 3.06 8.2 2.5 12.64.53l1.13-.53c.54-.27 1.2-.4 1.95-.43 5.76-.2 16.12 6.24 8.97 7.08zm-10.35 223.45c-.2 1.05-.88 2.24-1.7 2.44-.44.1-.9-.05-1.38-.63-1.38-1.7-1.28-2.77.53-3.3.3-.16.58-.26.84-.31 1.17-.24 1.97.5 1.71 1.8zm-101.72 73.14c6.17 0 5.22 6.17 5.22 12.35s8.08 6.18 16.62 9.03c8.55 2.86 12.35 2.38 20.9 7.61 8.54 5.23 10.44 8.08 6.17 14.26s-13.3 15.68-13.77 24.71c-.48 9.03-6.17 17.59-12.35 18.54-6.17.95-11.87 5.7-11.87 9.98s-5.7 2.38-6.17 10.46c-.48 8.08-7.6 17.1-10.92 15.68-.84-.36-2.21-1.04-3.73-1.77-4.51-2.16-10.27-4.64-6.72.35 4.75 6.65 5.7 9.98.48 12.35-4.81 2.2-10.83 10.82-14.34 9.59-.3-.11-.6-.29-.86-.56-3.32-3.32-2.85.48-2.85 3.8 0 2.45-.5 6.69-2.47 8.77a3.66 3.66 0 0 1-2.75 1.22c-4.27 0 3.8 11.88 1.42 13.3-.79.48-2.11 2.28-3.52 4.47-2.81 4.37-5.97 10.27-5.97 10.27s.47 6.65-4.75 2.38c-.4-.33-.8-.72-1.18-1.14-4.62-5.14-7.99-16.74-9.74-20.25-1.9-3.8.47-4.28 3.32-9.03 2.85-4.75 2.38-8.56-.47-17.11-2.85-8.56-1.9-15.21 2.37-18.54 4.27-3.33 1.9-14.26 1.9-20.44 0-2.26 1.22-3.9 2.62-5.3 2.4-2.43 5.36-4.22 3.55-7.53-2.84-5.23.48-11.4-2.84-14.26-.24-.2-.47-.42-.71-.67-3.22-3.27-7.26-10.26-12.11-10.26-5.23 0-4.28-5.23-4.28-9.5 0-.72-.3-1.54-.8-2.42-2.1-3.69-7.89-8.6-11.05-12.89a15.85 15.85 0 0 1-1.44-2.28c-2.77-5.53-3.3-15.09 1.44-17.83l.46-.23c5.22-2.38 2.84-9.51 8.07-10.94 1.37-.37 2.15-1.04 2.52-1.89.41-.93.33-2.08 0-3.3-.52-1.92-1.67-4.02-2.52-5.74-1.01-2.01-4.82-1.9-8.53-1.9-3.3 0-6.5-.11-7.62-1.9l-.3-.54c-2.13-4.2-2.9-14.2-10.62-14.2a14.5 14.5 0 0 1-6.7-1.77c-4.5-2.27-8.46-5.98-14.67-6.3-.97-.05-1.92-.17-2.86-.33-3.83-.65-7.37-2.09-10.59-3.44-2.22-.93-4.3-1.81-6.2-2.36a13.9 13.9 0 0 0-2.66-.53c-3.7-.3-5-5.61-6.49-10.08-.8-2.42-1.67-4.6-3-5.6-3.8-2.85-16.63-14.74-13.78-10.46 2.85 4.28 6.17 9.5 2.85 10.46-3.24.92-6.02-4.01-9.68-9.54l-.3-.44c-2.78-4.2-5.83-7.62-8-11.59v-150.78c3.38-.3 5.58-.36 6.58 2.67.38 1.14.97 1.8 1.72 2.2 2.09 1.11 5.5.2 9.68 1.6 5.7 1.9 4.75-6.66 12.35-6.66.55 0 1.08.03 1.58.07 3.62.3 5.95 1.64 9.16 2.72 1.7.58 3.66 1.08 6.2 1.33 1.05.1 2.2.16 3.47.16 2.71 0 5.1-.03 7.11-.11 6.11-.27 8.8-1.07 6.66-3.21-2.85-2.86-3.32-6.18-5.7-6.66a2.26 2.26 0 0 1-.96-.45v-5.17c.38-.39.85-.74 1.44-1.03 3.8-1.9 4.75-5.23 7.12-1.43 2.38 3.8-1.42 9.03 3.8 8.56 5.2-.48 1.94 8.44 5.17 6.21l.06-.03c3.32-2.38 6.64-.48 7.12 3.32.47 3.8 3.8 2.85 3.8-1.42 0-3.92 1.99-6.25 6.34-6.24.4 0 .81.02 1.25.06 5.23.47 8.07 15.68 2.38 15.68-1.21 0-2.44.13-3.63.33-4.41.75-8.24 2.52-8.24 2.52s-1.43 9.04-6.65 9.04c-1.14 0-1.9.2-2.43.52-1.91 1.16-.98 3.86-4.7 4.23-4.74.47-3.8 9.03-6.17 10.45-2.37 1.43 1.43 4.28 1.9 8.09.4 3.22 2.52 4.74 8.97 7.16 1.14.43 2.42.89 3.85 1.39 5.05 1.77 9.97 3.14 13.47 4.67 3.07 1.35 5.05 2.83 5.05 4.84 0 2.11 1.4 5.98 2.87 8.24 1.5 2.32 3.06 2.97 3.3-1.59.48-9.03.48-14.73 4.28-14.73 3.8 0 .47-4.76-.95-11.41-1.3-6.08-2.6-14.54 4.42-16.68.67-.2 1.4-.35 2.23-.43 4.4-.55 10.56 2.09 14.96 5.24 3.19 2.29 5.45 4.84 5.45 6.64 0 4.07 2.15 6.42 6.45 5.41l.68-.18c3.87-1.16 1.74-4.54 4.17-5.49.55-.21 1.33-.3 2.47-.22 1.69.13 2.84 1.08 3.7 2.46 2.31 3.68 2.56 10.47 5.33 13.23 3.8 3.8 10.92 5.23 9.5 8.56-1.43 3.32 10.44 11.4 2.37 11.4-8.08 0-11.87 2.38-13.77 5.7-1.24 2.17-2.07 1.72-3.42.48-.73-.66-1.6-1.55-2.76-2.38-.75-.54-2-.63-3.42-.46-1.55.19-3.3.7-4.85 1.3-3.27 1.27-5.61 2.97-3.12 2.97.92 0 2 .27 3.12.75 1.73.75 3.51 2.02 4.85 3.6 2.22 2.61 3.2 6.08.57 9.43l-.57.7c-1.61 1.9-3.25 3.2-4.85 4.2-3.43 2.14-6.64 2.9-8.82 5.08-1.32 1.32-2.19 3.01-3.08 4.57-1.37 2.38-2.79 4.46-5.94 4.46-5.23 0-8.07 11.89-8.07 16.16 0 1.67-1.37 3.11-3.18 4.49-2.84 2.15-6.77 4.12-8.22 6.44-2.37 3.8-.48 7.6-.48 14.26 0 3.7-.73 5.05-2.35 4.22-1.3-.67-3.18-2.74-5.72-6.12-.69-.92-1.43-1.7-2.2-2.34-5.62-4.7-13.1-2.66-17.26-.98l-.06.02c-4.74 1.85-10.88-1.44-15.14 2.35-.77.69-1.59 1.69-2.39 2.88-3.62 5.44-6.81 15-3.3 18.51 1 1.01 2.12 2.24 3.3 3.46 3.8 3.92 8.26 7.77 11.89 4.14a52.1 52.1 0 0 1 5.64-4.95c3.13-2.3 5.75-3.26 5.75-.27 0 4.75-.95 16.63 6.18 16.63 7.12 0 2.37 5.23 5.22 9.98l.17.28c2.06 3.3 5.02 5.87 7.92 6.54 1.13.26 2.25.23 3.3-.16 2.06-.77 4.94-.3 7.75-.07 2.4.2 4.75.21 6.5-.88 3.8-2.38 7.6-7.13 9.5-2.38.28.7.68 1.26 1.19 1.7 2.63 2.3 7.92 1.37 11.9 1.18l1.15-.03c1.13 0 2.36-.08 3.7-.14 1.87-.08 3.93-.12 6.18.16 2.9.36 6.11 1.26 9.59 3.3 3.97 2.35 7.6 5.15 11 7.39 3.5 2.3 6.76 4.03 9.9 4.03zm-2.6-137.97c2.14 4.63.72 9.25-6.4 6.05l-.9-.4c-6.53-2.82-10-3.1-7.27-9.57 2.84-6.76-.72-6.4 3.9-6.05 1.31-.06 2.42.06 3.37.33 4.51 1.27 5.55 5.82 7.3 9.64zm96.18 53.26c1.6-.85 2.87-.1 2.55 1.49-.32 1.6-1.7 3.51-3.08 1.8-1.39-1.7-1.28-2.76.53-3.29zm-123.2-37.6c-.3 0-.59-.03-.86-.09-3.34-.7-4.86-5.3-.92-5.96.32-.1.63-.15.92-.17 3.83-.24 4.5 6.22.86 6.22zm.66-186.16c-.53.18-1.03.37-1.52.55-2.4.9-4.42 1.81-6.18 2.8a22.75 22.75 0 0 0-7.97 7.1c-1.63 2.33-5.08 4.54-8.78 6.14-3.87 1.67-8.02 2.66-10.7 2.42-5.21-.47-1.9 12.36-5.69 12.36-.27 0-.53.05-.8.14-3.06 1.05-6.25 7.63-11.05 9.4-.76.28-1.55.44-2.4.44-1.56 0-3.5.21-5.52.46-6.6.8-14.2 2-13.47-2.36.95-5.7 4.28-9.98 9.97-11.88 5.57-1.86-6.98-10.07 3.5-11.33l.78-.08c2.93-.24 5.35-.7 7.14-1.28 4.52-1.44 5.06-3.54 0-4.21-1.04-.14-2.3-.22-3.82-.22-1.56 0-2.9.03-4.1.07-7.89.24-8.7 1.05-14.9-1.02a30.3 30.3 0 0 1-2.42-.92v-6.2h1c5.01 0 10.57-1.93 16.32-4.01 2.61-.95 5.26-1.93 7.92-2.77a45.12 45.12 0 0 1 11.05-2.28c1.07-.06 2.13-.05 3.18.02 6.94 0 7.14 2.38 14 2.07.66-.03 1.36-.08 2.14-.17 2.57-.27 6.16-.23 9.77.03 1.64.12 3.28.28 4.85.48 2.35.3 4.51.7 6.18 1.14 3.33.88 4.67 2 1.52 3.1zm-3.8 96.96c-1.42-.4-2.75-.62-3.9-.64-4.28-.1-6.18 2.33-1.33 6.82.52.47.95.95 1.33 1.44v8.81a3.95 3.95 0 0 1-4.17.68l-.68-.27a208.56 208.56 0 0 0-11.9-4.32c-5.27-1.72-10.94-3.25-14.96-3.5a13.3 13.3 0 0 1-2.23-.3c-6.13-1.43-7.04-6.87-.62-7.3l.62-.05c6.39-.77 4.73-6.23 8.87-9.45 4.28-3.33 4.28-3.33-2.37-8.08a22.84 22.84 0 0 0-6.5-3.08 50.56 50.56 0 0 0-11.05-1.92 90.24 90.24 0 0 0-6.67-.23c-.4 0-.82-.03-1.25-.08-6.13-.72-14.42-6.41-14.42-10.85 0-4.53 3.03-9.5 14.42-10.36l1.73-.1c1.62-.1 3.83.08 6.19.46 4 .64 8.43 1.83 11.05 3.04 2.6 1.2 3.43 2.43.33 3.16l-.33.08v2.3c3.12 1.8 11.01 4.02 17.19 5.62l5.93 1.5c3.7.93 4.92 4.22 5.97 7.64 1.04 3.37 1.9 6.86 4.85 8.28.18.09.37.17.57.24 2.41.86 4.39 2.72 5.6 4.66v5.94a4.2 4.2 0 0 1-2.27-.14zm-3.26 91.5c-.23 0-.44-.02-.64-.06-2.48-.52-3.6-3.93-.68-4.42.24-.07.46-.12.68-.13 2.84-.18 3.33 4.61.64 4.61zm-3.09 84.93c-.85-.04-1.66-.15-2.4-.31v-2.9h.19c1.93 0 3.86.84 4.66 1.65v1.26c-.42.23-1.2.35-2.45.3zm-12.78-7.39c4.18-.24 3.69 6.65-.74 6.65a4.8 4.8 0 0 1-.78-.07v-6.52c.46-.04.97-.06 1.52-.06zm-15.74-1.72a9.2 9.2 0 0 1-2.97-.5c-3.23-1.11-4.81-3.68-.96-3.68.33-.02.65-.01.96 0 4.44.32 7.57 4.18 2.97 4.18zm1.73-11.07a5.49 5.49 0 0 0-4.7-.54c-1.7.5-3.13 1.36-4.65.54-2.7-1.48-1.96-6.15 2.46-6.9.75 0 1.48.16 2.2.41 4.86 1.78 8.34 8.64 4.69 6.49zm-2.84-164.23c-.65.41-1.27.7-1.86.85-3.9 1.08-6.03-3.05-1.7-5.84a6.8 6.8 0 0 1 1.7-.33c3.55-.23 6.17 2.54 1.86 5.32zm-11.18 170.62a8.68 8.68 0 0 1-1.73-.34c-4.38-1.33-6.7-5.72-1.46-5.07.5 0 .99.06 1.46.16 4.29.94 6.61 5.7 1.73 5.25zm2.52-209.7a11.3 11.3 0 0 1-4.25 1.6 32.2 32.2 0 0 1-7.92.22c-4.38-.32-8.82-1.11-12.04-1.34-2.36-.17-4 .2-5.28.58-2.34.68-3.5 1.4-5.64-1.06-3.33-3.8-6.65-10.45-.48-9.5 2.45-1.23 3.51.9 6.12 2.44 1.44.85 3.35 1.53 6.23 1.36 2.73-.16 6.94 0 11.09.45 2.83.3 5.63.72 7.92 1.26 4.24.99 6.7 2.36 4.25 4zm-5.7 57.52c-2.4-.7-4.56-.07-6.47.73-3.36 1.41-5.95 3.38-7.77-.26-2.85-5.7.48-8.55 5.7-9.5.66 0 1.36.12 2.07.35 3.1.97 6.37 3.8 7.92 6.02v2.87c-.36.02-.84-.04-1.44-.21zm-3.43 2.92c6.05-1.43 5.34 3.2 2.5 4.27-1.74.65-4.93-.55-5.54-1.91v-.88c.28-.58 1.2-1.11 3.04-1.48zm-18.4-83.25c-.66.4-1.32.73-1.96 1-6.33 2.73-11.73-.1-10.87-5.28.95-5.7-9.5-15.68-1.9-15.2 9.03-.96 8.08 6.17 12.35 6.65.14.01.28.04.42.07 4.18.92 8.85 8.62 1.95 12.76zm-3.65 9.2c-5.33-.36-5.33-4.63-.35-4.63.78-.07 1.47.09 2.04.38v4.14c-.46.1-1.02.15-1.69.1zm-10.3 14.24c-1.89 0-3.73-.2-5.54-.5-3.67-.6-7.2-1.56-10.59-1.91l-.95-.08c-5.3-.36-4.98-8.44.95-7.85l.12.02c4.98 0 5.69 5.34 8.89 5.34.43 0 .97.08 1.58.24 3.99 1 10.77 4.74 5.53 4.74zm-1.79-18.87c3.92 0-1.06 6.4 2.85 6.4 3.21 0-3.65 3.85-6.6 2.86a1.71 1.71 0 0 1-1.23-1.43 7.38 7.38 0 0 1 1.23-5.43c1.03-1.47 2.48-2.4 3.75-2.4zm11.03 25.63c-1.42 3.56-7.11 4.28-8.18 6.41-1.07 2.14-2.85 2.14-4.27-1.42-1.42-3.56-1.78-7.48 4.27-7.83 4.27 0 9.6-.72 8.18 2.84zm-18.09-24.02c-2.76-.74-5.1-.97-7.28-1.02-2.12-.04-4.1.1-6.2.16-1.3.03-2.64.02-4.09-.1-1.86-.13-3.63-1.31-5.06-2.84-3.3-3.54-4.76-8.94-1.11-7.6l1.11.01c3.38.12 6.33.73 9.16 1.4 2.08.5 4.1 1.02 6.2 1.4 1.72.3 3.49.5 5.37.5 2.35 0 4.11.97 5.21 2.23v5.73c-.76.41-1.86.52-3.3.13zm.66 50.37c-3.73 0-6.48-1.05-7.94-2.3v-3.6a7.03 7.03 0 0 1 2.96-.51c2.61 0 5.82 1.35 7.63 2.8v3.34c-.64.17-1.5.27-2.65.27zm-6.04-29.55c5.33 0 2.84 9.97 5.69 9.61 2.84-.36-1.07 7.12-6.76 7.12-.27 0-.55-.02-.83-.06-2.23-.3-4.54-1.77-6.2-3.4-2.4-2.37-3.4-5.08-.8-5.08.28 0 .55 0 .8-.02 4.19-.15 6.88-1.51 4.54-3.19-2.08-1.48-1.18-3.47 1.66-4.5.56-.2 1.2-.36 1.9-.48zm.63-40.3c5.23-.48 8.55 6.17 3.33 6.17a7.94 7.94 0 0 1-5.86-2.73v-2.93a4.89 4.89 0 0 1 2.53-.52zm-7.6 61.78c2.1 0 1.3 1.02-1.12 1.85a22.5 22.5 0 0 1-8.37 1l-.79-.02c-7.26-.01-17.52 5.59-23.6 3.23a6.7 6.7 0 0 1-.78-.36c-3-1.62-5.9-2.57-7.54-3.33v-2.2l.42-.17c2-.8 1.22-.93-.42-1.16-2.25-.32-6.15-.84-6.7-3.6-.95-4.74-14.72 0-18.52-4.74-3.8-4.76-.47-14.74 7.6-14.74 6.65-.47 9.97 3.33 15.67 3.33.65 0 1.3.07 1.95.19 2.76.52 5.46 2.02 8.31 3.24 2.3.99 4.69 1.8 7.3 1.8 6.65 0 13.78-2.86 16.15 4.27l.16.48c2.16 6.16 5.75 10.08 9.16 10.8.38.09.75.13 1.13.13zm-9.4-37.14c4.99 0 6.05 3.91 1.07 3.91-.7 0-1.35-.08-1.95-.2v-3.69c.28-.02.57-.02.89-.02zm-4.62 10.68c-7.46-.36-11.38-2.14-14.58.35a26.25 26.25 0 0 1-5.29 3.16c-1.93.83-3.43 1-3.24-.31.25-1.79-2.96-.83-5.07-1.45-.83-.25-1.49-.75-1.7-1.75-.45-2.31-.02-4.92 1.7-6.56.94-.9 2.25-1.5 4-1.63 1.42-.1 2.9.4 4.31 1.09 3.56 1.71 6.76 4.56 7.78 1.76 1.42-3.92.71-5.34 4.62-4.99 4.63 0 4.63 7.83 10.67 7.83l.54.01v2.37c-1.01.13-2.26.19-3.74.12zm-15.2-24.21c5.27 0 9.04 9.05 2.26 9.05a7.86 7.86 0 0 1-6.93-4.46v-3.17c.65-1 2.12-1.63 4.67-1.42zM590 1579.5c-6.05 0-4.63 4.28-9.25 4.28s-7.47-5.7-.35-6.05c7.1-.36 7.46-5.34 15.64-5.7.83 0 1.5.06 2.05.17v4.15c-2.04 1.66-5.39 3.16-8.1 3.16zm3.29 42.5c-6.17 0-3.33-5.23-11.4-5.23s-4.27 1.9-11.4-2.85c-7.12-4.75-4.74 1.9-14.24 1.9s-11.4 1.9-11.4 6.18c0 4.28-13.3-6.65-27.06-7.6-13.77-.95-28.49-5.23-37.04-5.23-8.54 0-12.82 9.03-22.79 10.45-9.97 1.43.95 4.28 3.8 9.5 2.85 5.24 1.9 4.76-7.6 5.71-9.5.95 4.75 7.13 11.4 7.13s-.48 4.76-5.22 7.6c-4.75 2.86-6.65 12.84.94 13.32 7.6.47 3.8 4.75 13.3 4.75s.95 7.13-5.22 11.88c-6.18 4.75-5.7 10.93-2.38 8.08 3.33-2.85 11.87-9.98 16.15-11.4 4.27-1.43 7.12-9.04 10.92-11.41 3.8-2.38 6.65 4.75 9.02.95 2.37-3.8 7.12-.48 11.4-1.43 4.27-.95 13.3.95 17.09 1.9 3.8.95 8.07 4.76 13.77 4.28 5.7-.48 6.17 9.03 9.97 12.36 3.8 3.33 8.07 2.85 7.12 7.6-.95 4.75 6.65 11.41 13.77 14.26 7.13 2.85 9.98 11.4 4.28 8.56-5.7-2.85-6.18-1.9-4.28 3.32 1.9 5.23 2.85 8.56 0 9.99-2.84 1.42-2.85 15.2.95 21.86 3.8 6.65 17.1 13.3 19 19.49.5 1.63 1.17 3.14 1.95 4.57v-150.78c-1.4.13-3 .29-4.8.29z"/></defs><g><g opacity=".04" transform="translate(-451 -1526)"><use fill="#191919" xlink:href="#jgnsa"/></g></g></svg>