<svg xmlns="http://www.w3.org/2000/svg" xmlns:xlink="http://www.w3.org/1999/xlink" width="94" height="94"
     viewBox="0 0 94 94">
    <defs>
        <path id="2jbfa"
              d="M216.12 489.36a1.56 1.56 0 0 1-2.22-.07c-.6-.64-.56-1.63.07-2.22a38.31 38.31 0 0 0 11.8-33.04 1.57 1.57 0 1 1 3.1-.42 41.45 41.45 0 0 1-12.75 35.75zm-16.19-16a1.55 1.55 0 0 1-2.2-.18 1.57 1.57 0 0 1 .18-2.21 15.53 15.53 0 0 0 5.17-14.9 36.5 36.5 0 0 1-.68-5.64 1.57 1.57 0 1 1 3.13-.13 33.15 33.15 0 0 0 .64 5.14 18.67 18.67 0 0 1-6.24 17.92zm15.93-3.4a30.2 30.2 0 0 1-8.98 12.4 1.56 1.56 0 1 1-1.99-2.43 27.03 27.03 0 0 0 8.05-11.11 1.57 1.57 0 1 1 2.92 1.13zm-15.8-48.67a46.84 46.84 0 0 1 28.66-18.35 46.5 46.5 0 0 1 29.95 3.86 1.57 1.57 0 0 1-1.38 2.82 43.38 43.38 0 0 0-27.95-3.6 43.72 43.72 0 0 0-26.74 17.12 1.56 1.56 0 0 1-2.2.35c-.69-.51-.84-1.5-.33-2.2zm-4.59 38.27a1.57 1.57 0 0 1-3.04.75c-.15-.61-.28-1.23-.41-1.84-.02-.06-.05-.1-.06-.16a46.54 46.54 0 0 1 4.22-30.7 1.56 1.56 0 1 1 2.79 1.43 43.43 43.43 0 0 0-3.96 28.54l.05.1c.12.64.26 1.26.41 1.88zm77.42-17.74l.04.15c.3 1.52.57 3.04.78 4.5a1.57 1.57 0 0 1-3.1.45 82.95 82.95 0 0 0-.76-4.33 32.53 32.53 0 0 0-38.27-25.45 32.32 32.32 0 0 0-25.6 26.31 1.56 1.56 0 1 1-3.1-.54 35.43 35.43 0 0 1 28.08-28.85 35.67 35.67 0 0 1 41.93 27.76zm-22.18 4.84c.81 4.07 1.23 8.22 1.24 12.35a1.57 1.57 0 1 1-3.13 0 61.29 61.29 0 0 0-1.24-12.12 9.75 9.75 0 0 0-4.15-6.05 9.8 9.8 0 0 0-15.03 6.18 1.57 1.57 0 1 1-3.07-.65 12.94 12.94 0 0 1 25.38.29zm-23.25 47.3a1.56 1.56 0 0 1-2.22.14 1.57 1.57 0 0 1-.14-2.22 49.28 49.28 0 0 0 11.37-42.56 1.57 1.57 0 0 1 3.08-.62 52.4 52.4 0 0 1-12.1 45.25zm57.53-44a1.57 1.57 0 0 1-1.56 1.54h-.03a1.57 1.57 0 0 1-1.54-1.6 44.2 44.2 0 0 0-.85-9.44c0-.04-.03-.07-.04-.12a43.68 43.68 0 0 0-17.78-27.23 1.57 1.57 0 0 1 1.8-2.57A46.8 46.8 0 0 1 284 439.6c.01.05.05.08.06.13.68 3.38.99 6.82.92 10.24zm-23.17-5.65a75.2 75.2 0 0 1 .49 27.05 1.57 1.57 0 1 1-3.1-.5 72 72 0 0 0-.48-26.03l-.01-.1a21.03 21.03 0 0 0-9.01-13.35 21 21 0 0 0-15.9-3.12 21.2 21.2 0 0 0-16.6 24.67c.04.08.06.17.08.26.61 3.02.76 6.1.43 9.13-.1.86-.88 1.48-1.72 1.4a1.57 1.57 0 0 1-1.4-1.74c.29-2.62.18-5.28-.33-7.9a24.33 24.33 0 0 1 18.93-28.9 24.12 24.12 0 0 1 18.24 3.6c5.4 3.58 9.08 9.07 10.37 15.43l.01.1zm12.66 9.44a86.29 86.29 0 0 1-2.74 27.67 1.57 1.57 0 1 1-3.02-.8 83.19 83.19 0 0 0 2.64-26.67 1.57 1.57 0 1 1 3.12-.2zm-13.73 24.84a75.55 75.55 0 0 1-5.05 13.53 1.56 1.56 0 1 1-2.82-1.38 72.53 72.53 0 0 0 4.84-12.97 1.56 1.56 0 1 1 3.03.81zm-9.2-12.2a64.36 64.36 0 0 1-10.8 28.93 1.56 1.56 0 1 1-2.6-1.77c5.61-8.2 9.16-17.7 10.28-27.51a1.57 1.57 0 0 1 3.11.35z"/>
    </defs>
    <g>
        <g transform="translate(-191 -402)">
            <use fill="#fff" xlink:href="#2jbfa"/>
        </g>
    </g>
</svg>