<svg xmlns="http://www.w3.org/2000/svg" xmlns:xlink="http://www.w3.org/1999/xlink" width="67" height="70" viewBox="0 0 67 70"><defs><path id="2h1ka" d="M1520.55 1624.65c-12.17-13.2-32.89-13.87-46.28-1.5-13.39 12.35-14.38 33.08-2.21 46.27 12.16 13.2 32.88 13.88 46.27 1.51 13.39-12.36 14.38-33.08 2.22-46.28z"/><path id="2h1kb" d="M1518.28 1619.13a4.28 4.28 0 1 1 0 8.56 4.28 4.28 0 0 1 0-8.56z"/><path id="2h1kc" d="M1495.3 1610.13a4.27 4.27 0 1 1-.02 8.54 4.27 4.27 0 0 1 .02-8.54z"/><path id="2h1kd" d="M1473.31 1619.13a4.28 4.28 0 1 1 0 8.56 4.28 4.28 0 0 1 0-8.56z"/><path id="2h1ke" d="M1495.69 1622.37a24.47 24.47 0 0 1 24.4 24.54 24.47 24.47 0 0 1-24.4 24.53 24.47 24.47 0 0 1-24.4-24.53 24.47 24.47 0 0 1 24.4-24.54z"/><path id="2h1ki" d="M1518.28 1622a1.5 1.5 0 1 1 0 3 1.5 1.5 0 0 1 0-3z"/><path id="2h1kl" d="M1495.28 1613a1.5 1.5 0 1 1 0 3 1.5 1.5 0 0 1 0-3z"/><path id="2h1ko" d="M1473.31 1622a1.5 1.5 0 1 1 0 3 1.5 1.5 0 0 1 0-3z"/><path id="2h1kp" d="M1516.67 1644a20.97 20.97 0 0 0-23.48-18.16 21.03 21.03 0 0 0-18.09 23.58 20.97 20.97 0 0 0 23.48 18.16 21.03 21.03 0 0 0 18.09-23.57z"/><clipPath id="2h1kf"><use fill="#fff" xlink:href="#2h1ka"/></clipPath><clipPath id="2h1kg"><use fill="#fff" xlink:href="#2h1kb"/></clipPath><clipPath id="2h1kh"><use fill="#fff" xlink:href="#2h1kb"/></clipPath><clipPath id="2h1kj"><use fill="#fff" xlink:href="#2h1kc"/></clipPath><clipPath id="2h1kk"><use fill="#fff" xlink:href="#2h1kc"/></clipPath><clipPath id="2h1km"><use fill="#fff" xlink:href="#2h1kd"/></clipPath><clipPath id="2h1kn"><use fill="#fff" xlink:href="#2h1kd"/></clipPath></defs><g><g opacity=".94" transform="translate(-1463 -1610)"><use fill="#055a93" xlink:href="#2h1ke"/></g><g opacity=".94" transform="translate(-1463 -1610)"><use fill="#fff" fill-opacity="0" stroke="#c6c6c6" stroke-dasharray="0 3.74" stroke-linecap="round" stroke-miterlimit="50" stroke-width="3.74" clip-path="url(&quot;#2h1kf&quot;)" xlink:href="#2h1ka"/></g><g opacity=".94" transform="translate(-1463 -1610)"><use fill="#0094f8" xlink:href="#2h1kb"/><use fill="#fff" fill-opacity="0" stroke="#fff" stroke-linecap="round" stroke-linejoin="round" stroke-miterlimit="50" stroke-width="8" clip-path="url(&quot;#2h1kg&quot;)" xlink:href="#2h1kb"/><use fill="#fff" fill-opacity="0" stroke="#0094f8" stroke-linecap="round" stroke-linejoin="round" stroke-miterlimit="50" stroke-width="2" clip-path="url(&quot;#2h1kh&quot;)" xlink:href="#2h1kb"/></g><g opacity=".94" transform="translate(-1463 -1610)"><use fill="#0094f8" xlink:href="#2h1ki"/></g><g opacity=".94" transform="translate(-1463 -1610)"><use fill="#0094f8" xlink:href="#2h1kc"/><use fill="#fff" fill-opacity="0" stroke="#fff" stroke-linecap="round" stroke-linejoin="round" stroke-miterlimit="50" stroke-width="8" clip-path="url(&quot;#2h1kj&quot;)" xlink:href="#2h1kc"/><use fill="#fff" fill-opacity="0" stroke="#0094f8" stroke-linecap="round" stroke-linejoin="round" stroke-miterlimit="50" stroke-width="2" clip-path="url(&quot;#2h1kk&quot;)" xlink:href="#2h1kc"/></g><g opacity=".94" transform="translate(-1463 -1610)"><use fill="#0094f8" xlink:href="#2h1kl"/></g><g opacity=".94" transform="translate(-1463 -1610)"><use fill="#0094f8" xlink:href="#2h1kd"/><use fill="#fff" fill-opacity="0" stroke="#fff" stroke-linecap="round" stroke-linejoin="round" stroke-miterlimit="50" stroke-width="8" clip-path="url(&quot;#2h1km&quot;)" xlink:href="#2h1kd"/><use fill="#fff" fill-opacity="0" stroke="#0094f8" stroke-linecap="round" stroke-linejoin="round" stroke-miterlimit="50" stroke-width="2" clip-path="url(&quot;#2h1kn&quot;)" xlink:href="#2h1kd"/></g><g opacity=".94" transform="translate(-1463 -1610)"><use fill="#0094f8" xlink:href="#2h1ko"/></g><g opacity=".94" transform="translate(-1463 -1610)"><use fill="#fff" xlink:href="#2h1kp"/></g></g></svg>